<svg xmlns="http://www.w3.org/2000/svg" xmlns:xlink="http://www.w3.org/1999/xlink" viewBox="0 0 550 360.04">
  <defs>
    <style>
      .cls-1 {
        fill: url(#linear-gradient);
      }

      .cls-14, .cls-2, .cls-3, .cls-6, .cls-7, .cls-8, .cls-9 {
        isolation: isolate;
      }

      .cls-2 {
        font-size: 14px;
      }

      .cls-14, .cls-2, .cls-6, .cls-7, .cls-8, .cls-9 {
        font-family: Cousine, monospace;
      }

      .cls-10, .cls-11, .cls-12, .cls-13, .cls-4, .cls-5 {
        fill: none;
      }

      .cls-11, .cls-4, .cls-5 {
        stroke: #000;
      }

      .cls-5 {
        stroke-width: 0.75px;
      }

      .cls-14, .cls-6, .cls-7 {
        font-size: 18px;
      }

      .cls-6 {
        fill: #0000b8;
      }

      .cls-7 {
        fill: #b80000;
      }

      .cls-8 {
        font-size: 15px;
      }

      .cls-9 {
        font-size: 17px;
      }

      .cls-10 {
        stroke: blue;
      }

      .cls-10, .cls-11, .cls-12, .cls-13 {
        stroke-width: 2px;
      }

      .cls-11 {
        stroke-dasharray: 5.54 3;
      }

      .cls-12 {
        stroke: lime;
      }

      .cls-13 {
        stroke: red;
      }

      .cls-14 {
        fill: #00a400;
      }
    </style>
    <linearGradient id="linear-gradient" x1="57.5" y1="323.65" x2="550.5" y2="323.65" gradientUnits="userSpaceOnUse">
      <stop offset="0" stop-color="#020005"/>
      <stop offset="0.02" stop-color="#06020a"/>
      <stop offset="0.05" stop-color="#100619"/>
      <stop offset="0.08" stop-color="#210e31"/>
      <stop offset="0.12" stop-color="#391953"/>
      <stop offset="0.15" stop-color="#58277d"/>
      <stop offset="0.16" stop-color="#662d91"/>
      <stop offset="0.32" stop-color="blue"/>
      <stop offset="0.48" stop-color="aqua"/>
      <stop offset="0.63" stop-color="lime"/>
      <stop offset="0.67" stop-color="#5eff00"/>
      <stop offset="0.71" stop-color="#b4ff00"/>
      <stop offset="0.74" stop-color="#eaff00"/>
      <stop offset="0.76" stop-color="#ff0"/>
      <stop offset="0.78" stop-color="#ffbe00"/>
      <stop offset="0.81" stop-color="#ff7b00"/>
      <stop offset="0.83" stop-color="#ff4600"/>
      <stop offset="0.85" stop-color="#ff2000"/>
      <stop offset="0.87" stop-color="#ff0900"/>
      <stop offset="0.88" stop-color="red"/>
      <stop offset="0.89" stop-color="#f60000"/>
      <stop offset="0.91" stop-color="#dc0000"/>
      <stop offset="0.93" stop-color="#b30000"/>
      <stop offset="0.95" stop-color="#7a0100"/>
      <stop offset="0.98" stop-color="#320100"/>
      <stop offset="1" stop-color="#040100"/>
    </linearGradient>
  </defs>
  <title>absorbance</title>
  <g id="Layer_2" data-name="Layer 2">
    <rect class="cls-1" x="57.5" y="286.74" width="493" height="73.82"/>
  </g>
  <g id="Layer_1" data-name="Layer 1">
    <text class="cls-2" transform="translate(130.36 311.93)">400</text>
    <g class="cls-3">
      <text class="cls-2" transform="translate(119.33 329.58)">Violet</text>
    </g>
    <text class="cls-2" transform="translate(205.03 329.58)">Blue</text>
    <text class="cls-2" transform="translate(278.08 329.58)">Cyan</text>
    <g class="cls-3">
      <text class="cls-2" transform="translate(345.62 329.58)">Green</text>
    </g>
    <g class="cls-3">
      <text class="cls-2" transform="translate(402.11 329.58)">Yellow</text>
    </g>
    <text class="cls-2" transform="translate(480.65 329.58)">Red</text>
    <g>
      <line class="cls-4" x1="57.5" y1="22.74" x2="57.5" y2="286.74"/>
      <line class="cls-4" x1="57.5" y1="286.74" x2="550" y2="286.74"/>
      <line class="cls-5" x1="66.5" y1="286.74" x2="66.5" y2="294.74"/>
      <line class="cls-5" x1="118.9" y1="286.74" x2="118.9" y2="294.74"/>
      <line class="cls-5" x1="186.9" y1="286.74" x2="186.9" y2="294.74"/>
      <line class="cls-5" x1="226.2" y1="286.74" x2="226.2" y2="294.74"/>
      <line class="cls-5" x1="244.9" y1="286.74" x2="244.9" y2="294.74"/>
      <line class="cls-5" x1="279.5" y1="286.74" x2="279.5" y2="294.74"/>
      <line class="cls-5" x1="312.2" y1="286.74" x2="312.2" y2="294.74"/>
      <line class="cls-5" x1="354.2" y1="286.74" x2="354.2" y2="294.74"/>
      <line class="cls-5" x1="381.5" y1="286.74" x2="381.5" y2="294.74"/>
      <line class="cls-5" x1="405.5" y1="286.74" x2="405.5" y2="294.74"/>
      <line class="cls-5" x1="459.5" y1="286.74" x2="459.5" y2="294.74"/>
      <line class="cls-5" x1="536.9" y1="287.14" x2="536.9" y2="297.94"/>
      <line class="cls-5" x1="528.9" y1="286.74" x2="528.9" y2="294.74"/>
      <line class="cls-5" x1="520.2" y1="286.74" x2="520.2" y2="294.74"/>
      <line class="cls-5" x1="503.5" y1="286.74" x2="503.5" y2="294.74"/>
      <line class="cls-5" x1="427.5" y1="286.74" x2="427.5" y2="294.74"/>
      <line class="cls-5" x1="262.9" y1="286.74" x2="262.9" y2="294.74"/>
      <line class="cls-5" x1="296.2" y1="286.74" x2="296.2" y2="294.74"/>
      <line class="cls-5" x1="340.9" y1="286.74" x2="340.9" y2="294.74"/>
      <line class="cls-5" x1="368.2" y1="286.74" x2="368.2" y2="294.74"/>
      <line class="cls-5" x1="392.9" y1="286.74" x2="392.9" y2="294.74"/>
      <line class="cls-5" x1="449.5" y1="287.14" x2="449.5" y2="297.94"/>
      <line class="cls-5" x1="495.5" y1="286.74" x2="495.5" y2="294.74"/>
      <line class="cls-5" x1="478.9" y1="286.74" x2="478.9" y2="294.74"/>
      <line class="cls-5" x1="512.9" y1="286.74" x2="512.9" y2="294.74"/>
      <line class="cls-5" x1="468.9" y1="286.74" x2="468.9" y2="294.74"/>
      <line class="cls-5" x1="416.9" y1="286.74" x2="416.9" y2="294.74"/>
      <line class="cls-5" x1="438.2" y1="286.74" x2="438.2" y2="294.74"/>
      <line class="cls-5" x1="486.9" y1="286.74" x2="486.9" y2="294.74"/>
      <line class="cls-5" x1="326.2" y1="287.14" x2="326.2" y2="297.94"/>
      <line class="cls-5" x1="165.5" y1="286.74" x2="165.5" y2="294.74"/>
      <line class="cls-5" x1="206.9" y1="286.74" x2="206.9" y2="294.74"/>
      <line class="cls-5" x1="94.9" y1="286.74" x2="94.9" y2="294.74"/>
      <line class="cls-5" x1="142.9" y1="287.14" x2="142.9" y2="297.94"/>
      <line class="cls-5" x1="57.5" y1="286.74" x2="46.8" y2="286.74"/>
      <line class="cls-5" x1="57.5" y1="177.04" x2="46.8" y2="177.04"/>
      <line class="cls-5" x1="57.5" y1="67.34" x2="46.8" y2="67.34"/>
      <text class="cls-2" transform="translate(37.38 292.72)">0</text>
    </g>
    <text class="cls-2" transform="translate(28.97 183.05)">50</text>
    <text class="cls-2" transform="translate(20.57 73.39)">100</text>
    <line class="cls-5" x1="188.2" y1="50.14" x2="188.2" y2="59.94"/>
    <text class="cls-2" transform="translate(172.46 16.26)">420nm</text>
    <text class="cls-2" transform="translate(172.46 32.03)">Blue<tspan x="0" y="12.8">cones</tspan></text>
    <text class="cls-2" transform="translate(298.3 32.03)">Rods</text>
    <text class="cls-2" transform="translate(354.46 32.03)">Green<tspan x="0" y="12.8">cones</tspan></text>
    <text class="cls-2" transform="translate(408.38 32.03)">Red<tspan x="0" y="12.8">cones</tspan></text>
    <text class="cls-6" transform="translate(303.86 230.59)">Short</text>
    <text class="cls-7" transform="translate(495.69 230.59)">Long</text>
    <line class="cls-5" x1="374.9" y1="50.14" x2="374.9" y2="59.94"/>
    <text class="cls-2" transform="translate(354.46 16.26)">534nm</text>
    <line class="cls-5" x1="326.2" y1="50.14" x2="326.2" y2="59.94"/>
    <text class="cls-2" transform="translate(289.9 16.26)">498nm</text>
    <line class="cls-5" x1="410.5" y1="50.14" x2="410.5" y2="59.94"/>
    <text class="cls-2" transform="translate(408.03 16.26)">564nm</text>
    <text class="cls-2" transform="translate(313.69 311.93)">500</text>
    <text class="cls-8" transform="translate(245.16 351.6)">Wavelength (nm)</text>
    <text class="cls-9" transform="translate(16.95 236.75) rotate(-90)">Normalized absorbance</text>
    <text class="cls-2" transform="translate(437.03 311.93)">600</text>
    <text class="cls-2" transform="translate(524.36 313.93)">700</text>
    <path class="cls-10" d="M68,157.24c41.7-22.24,88.17-89.8,120.2-89.8,58.35,0,91.54,215.2,180.4,215.2"/>
    <path class="cls-11" d="M144,215.74c18-2.5,45.8-3.2,65-19,31-25.5,74.32-129.3,117.2-129.3,33.71,0,67.42,210.3,123.3,210.3"/>
    <path class="cls-12" d="M142.5,208.74c16,.5,48,3.5,61,3.5,22,0,39-2.5,62.5-21.5,27.3-22.1,46.5-51.5,59-71.5s31.3-51.8,49.8-51.8c36.69,0,80.09,211.8,119.7,211.8"/>
    <path class="cls-13" d="M144,205.74c22,3.5,46.5,12,58.5,14.5s25.5,5,38,5c61.71,0,110-95,117.5-106.5s31.5-51.3,51.5-51.3c37.73,0,85,209.8,108.5,209.8"/>
    <text class="cls-14" transform="translate(410.43 230.59)">Medium</text>
  </g>
</svg>
