<svg xmlns="http://www.w3.org/2000/svg" xmlns:xlink="http://www.w3.org/1999/xlink" viewBox="0 0 746 533">
  <defs>
    <style>
      .cls-1, .cls-3 {
        fill: #1982c4;
      }
      .cls-1, .cls-10, .cls-11, .cls-6, .cls-7, .cls-8, .cls-9 {
        stroke: #333;
      }
      .cls-1, .cls-10, .cls-11, .cls-6, .cls-7, .cls-8, .cls-9 {
        stroke-miterlimit: 10;
      }
      .cls-1, .cls-6, .cls-7 {
        stroke-width: 3px;
      }

      .cls-4 {
        clip-path: url(#clip-path);
      }
      .cls-5 { fill: #fff; }
      .cls-6 { fill: none; }
      .cls-7 { fill: #ffbfc1; }
      .cls-8 { fill: #ff595e; }
      .cls-9 { fill: #ffca3a; }
      .cls-10 { fill: #f0cdcd; }
      .cls-11 { fill: #c9ddf0; }
      .cls-10, .cls-11 {
        stroke-width: 2px;
      }
      .texts {
        <!-- font-family: IBMPlexSans, IBM Plex Sans, sans-serif; -->
        font-family: Cousine, monospace;
        font-size: 24px;
      }
      .dashed-line {
        stroke: #000;
        stroke-linecap: round;
        stroke-dasharray: 0 7;
        stroke-width: 2px;
      }
    </style>
    <clipPath id="clip-path">
      <path class="cls-1" d="M628.54,252.75c2.14,7.74,6.11,15.21,12.45,20.15,7.75,6.05,18,7.64,27.86,8.09s19.84,0,29.29,2.71c6.84,2,13.74,6.28,15.63,13.15,1.41,5.11-.24,10.52-1.95,15.54a542.77,542.77,0,0,1-27,65c-2.1,4.26-4.51,8.76-8.74,10.93-4.53,2.33-10,1.39-14.91,0a88.74,88.74,0,0,1-23.68-10.87c-5.86-3.82-11.27-8.34-17.43-11.65s-13.38-5.34-20.17-3.68c-8.28,2-9.92,8.09-13.63,14.54-3.63,6.29-8.82,12.28-13.37,17.93A237.55,237.55,0,0,1,185.5,369.66c-44.08-44.08-60-78.65-60-124.16,0-41.54,3.92-64.08,54.41-114.56a237.55,237.55,0,0,1,443.75,84.83C624.87,225.46,627.86,250.29,628.54,252.75Z"/>
    </clipPath>
  </defs>
  <title>eye</title>
  <g id="illustration">
    <g>
      <path class="cls-3" d="M628.54,252.75c2.14,7.74,6.11,15.21,12.45,20.15,7.75,6.05,18,7.64,27.86,8.09s19.84,0,29.29,2.71c6.84,2,13.74,6.28,15.63,13.15,1.41,5.11-.24,10.52-1.95,15.54a542.77,542.77,0,0,1-27,65c-2.1,4.26-4.51,8.76-8.74,10.93-4.53,2.33-10,1.39-14.91,0a88.74,88.74,0,0,1-23.68-10.87c-5.86-3.82-11.27-8.34-17.43-11.65s-13.38-5.34-20.17-3.68c-8.28,2-9.92,8.09-13.63,14.54-3.63,6.29-8.82,12.28-13.37,17.93A237.55,237.55,0,0,1,185.5,369.66c-44.08-44.08-60-78.65-60-124.16,0-41.54,3.92-64.08,54.41-114.56a237.55,237.55,0,0,1,443.75,84.83C624.87,225.46,627.86,250.29,628.54,252.75Z"/>
      <g class="cls-4">
        <polygon class="cls-5" points="162.5 121.5 301.5 211.5 296.5 300.5 110.5 360.5 108.5 127.5 162.5 121.5"/>
      </g>
      <path class="cls-6" d="M628.54,252.75c2.14,7.74,6.11,15.21,12.45,20.15,7.75,6.05,18,7.64,27.86,8.09s19.84,0,29.29,2.71c6.84,2,13.74,6.28,15.63,13.15,1.41,5.11-.24,10.52-1.95,15.54a542.77,542.77,0,0,1-27,65c-2.1,4.26-4.51,8.76-8.74,10.93-4.53,2.33-10,1.39-14.91,0a88.74,88.74,0,0,1-23.68-10.87c-5.86-3.82-11.27-8.34-17.43-11.65s-13.38-5.34-20.17-3.68c-8.28,2-9.92,8.09-13.63,14.54-3.63,6.29-8.82,12.28-13.37,17.93A237.55,237.55,0,0,1,185.5,369.66c-44.08-44.08-60-78.65-60-124.16,0-41.54,3.92-64.08,54.41-114.56a237.55,237.55,0,0,1,443.75,84.83C624.87,225.46,627.86,250.29,628.54,252.75Z"/>
    </g>
    <path class="cls-7" d="M324.5,244.5c0,50.81-91.07,92-122,92s-56-41.19-56-92,25.07-92,56-92S324.5,193.69,324.5,244.5Z"/>
    <path class="cls-8" d="M612,245.5c0,123.71-100.29,224-224,224a207,207,0,0,1-87.48-19c-26.43-12.34-49.89-30.37-69.61-51.78A279.1,279.1,0,0,1,204,364.36q-6.25-9.37-11.82-19.18c-1.84-3.24-3.55-6.54-5.35-9.8-2.09-3.76-4.69-5.54-2.84-10.34.95-2.47,2.55-4.63,3.56-7.08,1.13-2.73.39-5.72-.26-8.47a14.14,14.14,0,0,1-.8-3.64c.07-1.44,1-3.21,1.45-4.59.59-1.84,1.17-3.88.4-5.65-.62-1.41-2-2.33-3-3.43-4-4.14,2.4-6.43,2.16-10.68-.06-1.11-2.7-6.08-2.52-8.58.45-6.28,3.4-15.67,7.52-20.42,2.48-2.86,37.54,12.88,40,10s5.35-60.23,5-64c-.67-7.21-42.26,27.67-45.34,21.11-1.07-2.28-4.49-5.47-3-8.12.9-1.54,2.66-2.25,3.13-4.12s-.55-3.91-1.35-5.62c-1.91-4.09.22-8.4.4-12.75.14-3.3-2.52-7.26-1.87-10.5,1-5,6.4-4.71,7-7,1.87-7.16,1-13.62,2.88-20.77,1.24-4.72,1.93-10.22,3.87-14.69,1.38-3.2,3.53-6.41,5.25-9.48a219.37,219.37,0,0,1,11.86-18.86,208,208,0,0,1,28.91-33.1,198.77,198.77,0,0,1,76.2-43.89A212.58,212.58,0,0,1,388,21.5C511.71,21.5,612,121.79,612,245.5Z"/>
    <path class="cls-9" d="M602,245.5c0,17.61,10.15,31.49,24.73,41.09,12.4,8.17,26.79,12.71,41,17s29.58,8.73,42.37,16.29a422.57,422.57,0,0,1-21.88,53.45c-8.89-3.29-17.88-7.07-26.77-10.35l-36.24-13.39L592,337.29c-2.9-1.07-6-2.16-9-1.3-4.41,1.27-7.71,13.23-10,17.23A213.62,213.62,0,0,1,388,459.5c-59.27,0-108.25-22.58-142.37-60a65.28,65.28,0,0,1-7.13-10c-6-10-9.08-20.66-8-28,.45-3.09,1.86-7.87-.14-10.27-1-1.23-2.66-2-3.22-3.52a4.7,4.7,0,0,1,.92-4.18c.85-1.21,4.44-4,2.72-7.74-1-2.23-5-1.05-6.61-2.9a4,4,0,0,1-.3-4.15c.57-1.35,3.63-3.24,2.82-8-.3-1.8-2.76-2.4-4.59-2.39a9.63,9.63,0,0,0-8.83,6.46c-.56,1.71-.69,3.69-2,5-1.83,1.86-5.2,1.1-6.94-.85-2-2.24-6.14-14.21-6.87-17.47-4.33-19.4-5-39.14-5-59,0-2.25,71-3.6,71-6,0-5.05,2.41-12,3-17,.44-3.75-56-1-70-15,6.22-15.93,2-23,9-36,1.32-2.46,4.84-12.14,6-14.62,1.46-3.09,2.22-6.78,3.29-10a7.8,7.8,0,0,1,2.29-4,5.21,5.21,0,0,1,3.86-.8,63.06,63.06,0,0,1,6.25,1.62,5.1,5.1,0,0,0,3,0,2.31,2.31,0,0,0,1.58-2.35,11,11,0,0,0-.93-2,2.62,2.62,0,0,1,.78-2.85c1.15-.94,2.63-.31,4-.5a4.39,4.39,0,0,0,3.45-2c.84-1.55.2-3.47-.63-5a18.06,18.06,0,0,1-2.22-6.68,2.14,2.14,0,0,1,.66-2,2.31,2.31,0,0,1,1.79-.24,6.34,6.34,0,0,0,1.83.23c1.69-.19,2.12-1.92,2-3.35-.32-2.66-1.75-5.31-2.28-8a36.37,36.37,0,0,1-.68-7.43,37.88,37.88,0,0,1,3.09-14.22C247,84.12,255,75.8,263.73,69.06c10.78-8.37,23.06-14.75,35.65-19.91a238.25,238.25,0,0,1,43.66-13,231.05,231.05,0,0,1,45-4.63C506.19,31.5,602,127.31,602,245.5Z"/>
    <path class="cls-7" d="M590.5,245.5C590.5,357.34,499.84,448,388,448a201.53,201.53,0,0,1-116.5-36.85c-12.56-.94-21.71-12.48-27-22.85a73.19,73.19,0,0,1-6.82-20.18c-1.25-6.9-.85-13.27-.27-20.17a2.4,2.4,0,0,0-.91-2.53c-.75-.58-1.71-1.12-1.86-2.06-.2-1.21,1-2.09,1.86-3A5.41,5.41,0,0,0,236,333c-1.58-1.37-3.91-1.73-5.29-3.29a6.49,6.49,0,0,1-1.18-5.21c.2-1.51.67-3,.89-4.49a6.84,6.84,0,0,0-.63-4.44,7.08,7.08,0,0,0-4-2.81c-2.31-.81-5.33-1.09-7.51.32s-3.16,4.12-5.55,5.47-5.48,1.39-7.3-.5a8.29,8.29,0,0,1-1.81-4.12,50.71,50.71,0,0,1-1.14-11.79c.09-4.69,1.19-9.2.69-13.92-.53-5.08-2-10.13-1.44-15.26.23-2.15.83-4.26.95-6.42.32-6.27,1.1-13-4.88-14.89-1.91-.62,15.65-1.1,15.65-1.1l-1-27s-14.41-6.75-12.58-8.35,3-4.26,3.89-6.74a67.21,67.21,0,0,0,3-12.2,68.84,68.84,0,0,1,3.73-10.71c3.43-7.06,4.12-15.36,7.24-22.54,1-2.3,2.34-4.74,4.7-5.58,1.67-.59,3.5-.24,5.27-.17,2.26.09,5.65.95,7.79.29a29.52,29.52,0,0,1,5-1c1.16-.15,1-1.41,1.31-2.53s-.23-2.05-.45-3.08c-1.17-5.7,7.41-8.32,5.6-14.33-.51-1.69-1.42-3.25-1.76-5a8,8,0,0,1,2-6.87,9.07,9.07,0,0,0,1.29-1.48c.65-1.12-.17-3.08-.3-4.33a39.46,39.46,0,0,1-.18-4.07,40.5,40.5,0,0,1,.85-8.07,47.66,47.66,0,0,1,6-14.91c6.6-11,16.75-19.7,27.84-25.91a75.63,75.63,0,0,1,16.27-6.88,51.37,51.37,0,0,1,7.59-1.57c1.16-.15,2.34-.25,3.51-.29.82,0,2.43.35,3.16.06a202.57,202.57,0,0,1,237.27,67.31c3.66,4.91,6.79,10.14,10.28,15.16,1.84,2.65,3,4.14,3.85,7.4l3.21,12c1.63,6.12,3.54,12.68,8.51,16.61,2.42,1.92,5.45,3.09,7.43,5.46,3.12,3.73,2.72,9.18,2,14-.51,3.61-1.09,7.49,0,11,.55,1.85,1.57,3.2,1.9,5.1q.58,3.38,1,6.77A204.93,204.93,0,0,1,590.5,245.5Z"/>
    <g>
      <path class="cls-10" d="M235.5,332.5c2-14,13-29,18-38"/>
      <path class="cls-10" d="M224.5,312.5c0-10-6-24-8-40"/>
      <path class="cls-10" d="M247.13,139.13c1,5,3.44,24.38,12.13,39.32"/>
      <path class="cls-10" d="M235.5,157.5c1,2,1,1,1,6"/>
    </g>
    <ellipse class="cls-11" cx="239.5" cy="234.5" rx="32" ry="71"/>
  </g>
  <g id="texts" class="texts">
    <!-- <text transform="translate(105 112.15)" text-anchor="end">lens</text> -->
    <!-- <text transform="translate(105 152.16)" text-anchor="end">iris</text> -->
    <!-- <text transform="translate(105 192.17)" text-anchor="end">cornea</text> -->
    <!-- <text transform="translate(302 234.17)">vitreous chamber</text> -->
    <!-- <text transform="translate(302 268.17)">vitreous humor</text> -->
    <!-- <text transform="translate(30 480.78)">anterior chamber</text> -->
    <!-- <text transform="translate(30 511.78)">aqueous humor</text> -->
    <text transform="translate(631 36.91)">sclera</text>
    <text transform="translate(631 76.92)">RETINA</text>
    <text transform="translate(631 116.81)">choroid</text>
    <text transform="translate(631 156.67)">fovea</text>
    <text transform="translate(580 435.67)">optic nerve</text>
    <!-- <text transform="translate(291 519.67)">suspensory ligaments</text> -->
  </g>
  <g id="lines">
    <!-- <line class="dashed-line" x1="111" y1="114" x2="217" y2="236"/> -->
    <!-- <line class="dashed-line" x1="111" y1="154" x2="163" y2="213"/> -->
    <!-- <line class="dashed-line" x1="111" y1="195" x2="137" y2="226"/> -->
    <!-- <line class="dashed-line" x1="147" y1="450" x2="170" y2="290"/> -->
    <line class="dashed-line" x1="626" y1="36" x2="552" y2="86"/>
    <line class="dashed-line" x1="626" y1="76" x2="552" y2="125"/>
    <line class="dashed-line" x1="626" y1="116" x2="584" y2="146"/>
    <line class="dashed-line" x1="626" y1="157" x2="587" y2="186"/>
    <line class="dashed-line" x1="622" y1="409" x2="660" y2="341"/>
    <!-- <line class="dashed-line" x1="361" y1="499" x2="235" y2="311"/> -->
  </g>
</svg>
