<?xml version="1.0" standalone="no"?>
<!DOCTYPE svg PUBLIC "-//W3C//DTD SVG 20010904//EN"
 "http://www.w3.org/TR/2001/REC-SVG-20010904/DTD/svg10.dtd">
<svg version="1.0" xmlns="http://www.w3.org/2000/svg"
 width="800.000000pt" height="600.000000pt" viewBox="0 0 800.000000 600.000000"
 preserveAspectRatio="xMidYMid meet">

<g transform="translate(0.000000,600.000000) scale(0.100000,-0.100000)"
fill="#000000" stroke="none">
<path d="M3720 5974 c-25 -2 -103 -9 -175 -14 -669 -55 -1342 -250 -1887 -546
-643 -350 -1114 -813 -1394 -1370 -591 -1176 -127 -2517 1151 -3325 607 -384
1300 -609 2130 -691 171 -17 749 -17 920 0 722 72 1343 252 1887 548 643 350
1114 813 1394 1370 591 1176 127 2517 -1151 3325 -603 382 -1293 606 -2115
689 -105 11 -676 21 -760 14z m1116 -1859 c253 -44 443 -223 461 -433 l6 -72
-147 0 c-146 0 -146 0 -146 23 0 42 -50 126 -97 162 -68 52 -132 70 -248 70
-119 0 -182 -19 -245 -72 -105 -90 -105 -236 0 -312 60 -43 125 -65 317 -105
256 -54 382 -103 474 -184 109 -96 154 -271 114 -441 -44 -186 -191 -322 -414
-383 -111 -31 -382 -31 -493 0 -249 68 -392 212 -417 419 l-7 63 148 0 c134 0
148 -2 148 -17 0 -36 60 -122 106 -153 83 -58 144 -74 279 -74 100 0 129 4
176 22 145 57 213 183 160 297 -39 84 -122 131 -303 170 -348 76 -446 114
-547 210 -110 105 -154 257 -120 417 61 291 404 460 795 393z m-1372 -48 c193
-68 321 -211 362 -407 19 -88 14 -247 -10 -323 -55 -174 -182 -301 -363 -364
-75 -26 -87 -27 -325 -31 l-248 -4 0 -284 0 -284 -150 0 -150 0 0 866 0 865
403 -3 402 -3 79 -28z"/>
<path d="M2880 3520 l0 -332 198 4 c173 4 204 7 252 26 109 43 177 144 187
276 9 123 -36 235 -117 291 -75 52 -110 59 -322 63 l-198 4 0 -332z"/>
</g>
</svg>
