<?xml version="1.0" standalone="no"?>
<!DOCTYPE svg PUBLIC "-//W3C//DTD SVG 20010904//EN"
 "http://www.w3.org/TR/2001/REC-SVG-20010904/DTD/svg10.dtd">
<svg version="1.0" xmlns="http://www.w3.org/2000/svg"
 width="800.000000pt" height="600.000000pt" viewBox="0 0 800.000000 600.000000"
 preserveAspectRatio="xMidYMid meet">

<g transform="translate(0.000000,600.000000) scale(0.100000,-0.100000)"
fill="#000000" stroke="none">
<path d="M3720 5974 c-25 -2 -103 -9 -175 -14 -669 -55 -1342 -250 -1887 -546
-643 -350 -1114 -813 -1394 -1370 -591 -1176 -127 -2517 1151 -3325 607 -384
1300 -609 2130 -691 171 -17 749 -17 920 0 722 72 1343 252 1887 548 643 350
1114 813 1394 1370 591 1176 127 2517 -1151 3325 -603 382 -1293 606 -2115
689 -105 11 -676 21 -760 14z m-2310 -2639 l0 -745 395 0 395 0 0 -135 0 -135
-555 0 -555 0 0 880 0 880 160 0 160 0 0 -745z m1745 735 c202 -16 353 -71
473 -173 206 -173 293 -434 270 -800 -9 -138 -37 -249 -95 -367 -87 -177 -255
-314 -453 -370 -105 -29 -268 -40 -617 -40 l-303 0 0 880 0 880 303 0 c166 0
356 -5 422 -10z m1750 1 c117 -12 204 -41 288 -98 111 -75 187 -184 222 -318
20 -78 20 -253 0 -329 -51 -194 -208 -348 -410 -401 -42 -12 -128 -18 -292
-22 l-233 -6 0 -288 0 -289 -160 0 -160 0 0 880 0 880 328 0 c180 0 368 -4
417 -9z m1895 -126 l0 -135 -410 0 -410 0 0 -235 0 -235 385 0 385 0 0 -125 0
-125 -385 0 -385 0 0 -250 0 -250 410 0 410 0 0 -135 0 -135 -570 0 -570 0 0
880 0 880 570 0 570 0 0 -135z"/>
<path d="M2750 3200 l0 -610 203 0 c285 0 372 26 487 146 116 120 155 255 147
502 -5 163 -18 226 -69 326 -32 62 -126 155 -190 187 -101 51 -152 59 -375 59
l-203 0 0 -610z"/>
<path d="M4480 3485 l0 -336 208 3 c204 3 208 3 264 31 71 35 129 100 151 168
21 65 22 198 2 266 -20 68 -88 143 -157 174 -49 22 -67 24 -260 27 l-208 3 0
-336z"/>
</g>
</svg>
