<?xml version="1.0" standalone="no"?>
<!DOCTYPE svg PUBLIC "-//W3C//DTD SVG 20010904//EN"
 "http://www.w3.org/TR/2001/REC-SVG-20010904/DTD/svg10.dtd">
<svg version="1.0" xmlns="http://www.w3.org/2000/svg"
 width="800.000000pt" height="600.000000pt" viewBox="0 0 800.000000 600.000000"
 preserveAspectRatio="xMidYMid meet">

<g transform="translate(0.000000,600.000000) scale(0.100000,-0.100000)"
fill="#000000" stroke="none">
<path d="M3720 5974 c-25 -2 -103 -9 -175 -14 -669 -55 -1342 -250 -1887 -546
-643 -350 -1114 -813 -1394 -1370 -591 -1176 -127 -2517 1151 -3325 607 -384
1300 -609 2130 -691 171 -17 749 -17 920 0 722 72 1343 252 1887 548 643 350
1114 813 1394 1370 591 1176 127 2517 -1151 3325 -603 382 -1293 606 -2115
689 -105 11 -676 21 -760 14z m-2500 -2234 l0 -360 425 0 425 0 0 360 0 360
150 0 150 0 0 -865 0 -865 -150 0 -150 0 0 375 0 375 -425 0 -425 0 0 -375 0
-375 -150 0 -150 0 0 865 0 865 150 0 150 0 0 -360z m2345 332 c142 -39 239
-94 336 -191 73 -72 94 -101 132 -181 75 -155 103 -312 94 -515 -18 -398 -188
-659 -499 -766 -125 -42 -208 -49 -594 -49 l-354 0 0 866 0 866 403 -4 c374
-4 407 -6 482 -26z m1689 -5 c193 -68 321 -211 362 -407 19 -88 14 -247 -10
-323 -55 -174 -182 -301 -363 -364 -75 -26 -87 -27 -325 -31 l-248 -4 0 -284
0 -284 -150 0 -150 0 0 866 0 865 403 -3 402 -3 79 -28z m1716 -97 l0 -130
-410 0 -410 0 0 -235 0 -235 390 0 390 0 0 -125 0 -125 -390 0 -390 0 0 -245
0 -245 410 0 410 0 0 -130 0 -130 -560 0 -560 0 0 865 0 865 560 0 560 0 0
-130z"/>
<path d="M2980 3235 l0 -607 213 4 c187 4 220 7 277 27 162 56 261 165 311
344 30 107 33 344 6 447 -50 188 -152 304 -317 361 -57 20 -90 23 -277 27
l-213 4 0 -607z"/>
<path d="M4670 3520 l0 -332 198 4 c173 4 204 7 252 26 109 43 177 144 187
276 9 123 -36 235 -117 291 -75 52 -110 59 -322 63 l-198 4 0 -332z"/>
</g>
</svg>
