<?xml version="1.0" standalone="no"?>
<!DOCTYPE svg PUBLIC "-//W3C//DTD SVG 20010904//EN"
 "http://www.w3.org/TR/2001/REC-SVG-20010904/DTD/svg10.dtd">
<svg version="1.0" xmlns="http://www.w3.org/2000/svg"
 width="800.000000pt" height="600.000000pt" viewBox="0 0 800.000000 600.000000"
 preserveAspectRatio="xMidYMid meet">

<g transform="translate(0.000000,600.000000) scale(0.100000,-0.100000)"
fill="#000000" stroke="none">
<path d="M3720 5974 c-25 -2 -103 -9 -175 -14 -669 -55 -1342 -250 -1887 -546
-643 -350 -1114 -813 -1394 -1370 -591 -1176 -127 -2517 1151 -3325 607 -384
1300 -609 2130 -691 171 -17 749 -17 920 0 722 72 1343 252 1887 548 643 350
1114 813 1394 1370 591 1176 127 2517 -1151 3325 -603 382 -1293 606 -2115
689 -105 11 -676 21 -760 14z m2030 -1874 c162 -46 321 -159 406 -288 42 -63
87 -180 98 -254 l7 -48 -155 0 -156 0 0 24 c0 13 -16 55 -35 93 -91 183 -290
276 -497 232 -225 -48 -368 -259 -385 -570 -18 -320 108 -580 318 -660 66 -25
187 -34 264 -20 85 16 177 62 230 116 40 39 86 119 109 188 5 15 21 17 157 17
l151 0 -7 -37 c-11 -63 -45 -155 -78 -213 -48 -86 -178 -208 -268 -253 -128
-63 -211 -80 -389 -81 -185 0 -253 13 -385 79 -207 102 -346 294 -400 550 -37
174 -30 421 16 588 69 247 247 443 474 522 145 50 379 57 525 15z m-2165 -678
c117 -375 216 -690 220 -700 6 -15 8 -15 16 3 5 11 101 317 214 680 113 363
209 670 215 683 9 21 13 22 170 22 121 0 160 -3 160 -12 0 -7 -133 -399 -296
-870 l-297 -858 -179 0 c-98 0 -178 1 -178 3 -1 1 -135 389 -299 862 -164 473
-296 863 -294 868 3 4 79 6 170 5 l165 -3 213 -683z m-1031 645 c193 -68 321
-211 362 -407 19 -88 14 -247 -10 -323 -55 -174 -182 -301 -363 -364 -75 -26
-87 -27 -325 -31 l-248 -4 0 -284 0 -284 -150 0 -150 0 0 866 0 865 403 -3
402 -3 79 -28z"/>
<path d="M1970 3520 l0 -332 198 4 c173 4 204 7 252 26 109 43 177 144 187
276 9 123 -36 235 -117 291 -75 52 -110 59 -322 63 l-198 4 0 -332z"/>
</g>
</svg>
