<?xml version="1.0" standalone="no"?>
<!DOCTYPE svg PUBLIC "-//W3C//DTD SVG 20010904//EN"
 "http://www.w3.org/TR/2001/REC-SVG-20010904/DTD/svg10.dtd">
<svg version="1.0" xmlns="http://www.w3.org/2000/svg"
 width="440.000000pt" height="440.000000pt" viewBox="0 0 440.000000 440.000000"
 preserveAspectRatio="xMidYMid meet">
<metadata>
Created by potrace 1.13, written by Peter Selinger 2001-2015
</metadata>
<g transform="translate(0.000000,440.000000) scale(0.100000,-0.100000)"
fill="#000000" stroke="none">
<path d="M2105 4205 c-88 -27 -186 -85 -243 -141 -10 -11 -150 -241 -212 -349
-29 -51 -150 -255 -207 -348 -29 -49 -53 -90 -53 -92 0 -2 -27 -47 -60 -102
-33 -54 -60 -101 -60 -104 0 -4 30 -24 66 -45 36 -21 60 -40 52 -43 -7 -2 -69
-34 -138 -71 -69 -37 -177 -94 -240 -128 -210 -111 -255 -137 -255 -149 0 -7
28 -30 63 -52 34 -22 62 -46 62 -52 0 -11 -74 -154 -264 -511 -24 -46 -72
-139 -107 -208 l-64 -125 0 -105 c0 -95 3 -110 29 -162 16 -31 42 -73 58 -93
44 -53 143 -116 243 -155 17 -7 130 -16 260 -20 754 -27 926 -32 930 -29 2 3
7 71 11 152 6 121 5 147 -7 151 -8 3 -147 10 -309 16 -879 32 -822 27 -877 79
-49 46 -46 56 102 336 23 44 73 139 110 210 128 247 150 285 163 285 7 0 60
-31 117 -70 57 -38 109 -70 115 -70 7 0 11 115 12 343 3 423 2 410 15 414 6 2
33 -9 60 -25 28 -17 55 -27 60 -23 5 3 34 47 63 96 29 50 65 110 80 135 15 25
74 124 130 220 57 96 115 195 130 220 15 25 53 90 85 145 72 124 77 129 131
154 49 24 102 27 127 9 10 -7 107 -170 217 -362 178 -314 197 -351 182 -361
-9 -7 -50 -29 -89 -50 -40 -20 -73 -43 -73 -50 0 -7 141 -98 314 -201 173
-104 312 -192 309 -196 -2 -5 -26 -19 -53 -33 -27 -14 -51 -29 -55 -35 -5 -9
78 -178 215 -435 35 -66 136 -261 250 -480 47 -91 51 -105 47 -153 -2 -32 -12
-64 -24 -80 l-20 -27 -412 -3 -411 -2 0 135 c0 98 -3 135 -12 135 -19 0 -637
-374 -637 -385 0 -10 607 -377 634 -383 11 -3 15 14 17 90 l3 93 425 -4 425
-4 67 31 c172 78 259 217 258 416 -1 131 -8 150 -130 381 -60 114 -220 419
-345 660 -37 72 -73 136 -80 144 -11 11 -21 10 -60 -13 -26 -14 -54 -26 -61
-26 -12 0 -14 61 -14 355 0 300 -2 356 -14 361 -8 3 -48 -13 -90 -35 -41 -23
-79 -41 -84 -41 -5 0 -107 171 -227 381 -184 322 -223 385 -259 411 -43 31
-97 58 -155 77 -45 15 -186 12 -236 -4z"/>
<path d="M1878 2688 c-58 -15 -123 -79 -149 -146 -19 -49 -22 -77 -23 -207 0
-116 3 -163 17 -207 69 -227 367 -227 431 0 36 129 30 335 -14 436 -23 54 -89
111 -145 125 -51 13 -66 13 -117 -1z m109 -123 c36 -25 46 -79 46 -235 1 -199
-20 -250 -98 -250 -71 0 -102 97 -93 294 6 116 22 176 55 195 26 15 65 13 90
-4z"/>
<path d="M2412 2686 c-109 -36 -170 -132 -181 -288 -15 -216 17 -338 107 -400
59 -40 147 -50 217 -24 117 45 176 203 125 339 -22 57 -46 85 -97 111 -45 23
-130 21 -171 -4 -47 -29 -54 -26 -47 18 17 101 50 142 112 142 26 0 42 -8 63
-30 25 -26 35 -30 84 -30 53 0 56 1 56 25 0 14 -11 43 -24 64 -44 69 -157 105
-244 77z m113 -378 c76 -66 34 -228 -58 -228 -69 0 -116 70 -102 152 15 86
100 127 160 76z"/>
<path d="M2485 860 c-95 -14 -162 -58 -191 -127 -19 -44 -18 -137 2 -179 19
-40 77 -78 144 -94 25 -6 83 -19 130 -30 105 -25 132 -47 128 -104 -4 -57 -48
-86 -130 -86 -81 0 -127 23 -146 72 -17 43 -35 51 -103 46 -40 -3 -44 -6 -47
-32 -7 -60 43 -141 109 -173 131 -65 304 -54 394 24 55 48 70 84 70 169 0 72
-3 84 -27 116 -36 47 -90 70 -223 97 -146 30 -174 46 -175 103 0 44 50 78 117
78 73 0 119 -23 135 -66 14 -39 33 -47 99 -42 40 3 44 5 47 32 5 44 -6 73 -43
115 -60 67 -171 97 -290 81z"/>
<path d="M1655 848 c-7 -25 -13 -685 -6 -697 5 -8 32 -11 77 -9 l69 3 3 123 3
122 103 0 c149 0 203 23 253 108 25 42 28 57 28 132 -1 97 -14 131 -70 177
-20 17 -58 35 -86 41 -71 17 -368 16 -374 0z m342 -138 c58 -35 57 -135 0
-171 -25 -15 -51 -19 -114 -19 l-83 0 0 105 0 105 83 0 c64 0 89 -4 114 -20z"/>
</g>
</svg>
