<?xml version="1.0" standalone="no"?>
<!DOCTYPE svg PUBLIC "-//W3C//DTD SVG 20010904//EN"
 "http://www.w3.org/TR/2001/REC-SVG-20010904/DTD/svg10.dtd">
<svg version="1.0" xmlns="http://www.w3.org/2000/svg"
 width="1132.000000pt" height="1440.000000pt" viewBox="0 0 1132.000000 1440.000000"
 preserveAspectRatio="xMidYMid meet">
<metadata>
Created by potrace 1.13, written by Peter Selinger 2001-2015
</metadata>
<g transform="translate(0.000000,1440.000000) scale(0.100000,-0.100000)"
fill="#000000" stroke="none">
<path d="M5448 14390 c-2 -6 -53 -15 -113 -20 -61 -5 -132 -14 -160 -19 -27
-6 -66 -13 -85 -16 -19 -4 -44 -10 -55 -14 -11 -5 -51 -18 -90 -30 -102 -32
-297 -132 -399 -205 -184 -132 -357 -315 -481 -506 -34 -52 -292 -500 -575
-995 -1091 -1913 -1350 -2366 -1372 -2392 -5 -7 -7 -16 -4 -22 4 -5 193 -104
422 -221 332 -168 419 -209 430 -199 8 6 14 15 14 19 0 4 20 43 44 86 24 44
158 286 296 539 139 253 297 539 350 635 53 96 170 308 260 470 90 162 207
374 260 470 53 96 148 267 210 380 345 627 373 672 482 782 127 126 304 225
486 272 118 30 287 16 443 -37 192 -65 335 -181 481 -392 49 -71 94 -145 278
-460 178 -305 225 -385 250 -425 15 -25 60 -101 100 -170 40 -69 85 -145 100
-170 15 -25 74 -124 130 -220 57 -96 127 -215 157 -263 29 -49 53 -90 53 -92
0 -1 36 -62 80 -135 44 -73 80 -134 80 -135 0 -2 -93 -72 -207 -156 -217 -159
-399 -294 -591 -437 -63 -46 -111 -87 -107 -90 5 -6 2006 -4 2012 2 1 1 88
254 192 562 104 307 226 665 271 794 109 316 180 526 180 534 0 15 -25 2 -83
-42 -186 -143 -851 -625 -864 -626 -8 0 -32 26 -52 59 -21 33 -61 97 -89 143
-29 45 -74 117 -100 160 -104 165 -451 717 -712 1132 -174 275 -221 351 -350
555 -241 383 -301 452 -505 576 -76 46 -239 128 -295 148 -19 7 -44 16 -55 21
-62 23 -216 70 -234 70 -11 0 -22 4 -25 9 -3 5 -23 11 -43 14 -21 3 -63 11
-93 17 -30 5 -91 14 -135 19 -43 5 -81 13 -83 20 -5 14 -99 15 -104 1z"/>
<path d="M9130 9787 c-36 -24 -180 -115 -320 -201 -335 -208 -392 -245 -387
-254 3 -4 173 -311 379 -682 331 -595 446 -804 778 -1405 43 -77 158 -284 255
-460 98 -176 189 -340 202 -365 14 -25 58 -104 99 -177 134 -239 169 -327 193
-481 13 -86 15 -257 2 -298 -5 -16 -15 -49 -22 -74 -16 -53 -61 -142 -93 -185
-36 -47 -116 -124 -176 -169 -47 -36 -194 -126 -206 -126 -2 0 -27 -11 -56
-24 -29 -13 -75 -30 -103 -39 -47 -14 -70 -20 -190 -48 -69 -16 -2275 -30
-2291 -15 -8 8 -9 167 -4 556 4 300 4 549 0 553 -8 9 -18 -3 -128 -160 -40
-57 -103 -147 -141 -200 -493 -702 -641 -912 -738 -1046 -62 -86 -113 -164
-113 -172 0 -8 55 -92 122 -187 115 -163 561 -806 836 -1203 68 -99 133 -189
144 -200 19 -20 19 -17 17 537 -2 306 0 561 5 565 4 4 580 6 1279 5 1112 -3
1285 -2 1374 12 417 63 885 388 1154 802 55 84 146 257 182 344 26 64 36 95
48 135 4 17 13 48 19 70 19 65 30 134 39 234 4 57 12 96 19 99 15 5 16 139 2
144 -6 2 -15 46 -20 98 -5 52 -15 120 -20 150 -6 30 -14 72 -17 93 -3 20 -9
40 -14 43 -5 3 -9 18 -9 34 0 16 -4 32 -10 35 -5 3 -10 17 -10 30 0 13 -4 27
-10 30 -5 3 -10 15 -10 26 0 10 -4 27 -9 37 -5 9 -13 28 -19 42 -17 45 -120
253 -157 320 -20 36 -55 99 -78 140 -22 41 -53 97 -69 123 -15 26 -28 50 -28
52 0 2 -13 26 -28 52 -16 26 -44 77 -64 113 -20 36 -100 180 -178 320 -79 140
-164 293 -190 340 -26 47 -112 200 -190 340 -361 645 -825 1477 -903 1620 -45
84 -68 120 -75 120 -4 0 -36 -19 -72 -43z"/>
<path d="M5335 9461 c-212 -25 -409 -110 -541 -234 -99 -92 -157 -187 -207
-338 -29 -85 -61 -244 -54 -263 3 -8 50 -17 134 -25 70 -7 189 -18 263 -25
151 -15 160 -13 160 48 0 49 28 152 54 204 64 124 200 191 365 179 181 -12
292 -104 328 -270 32 -154 -11 -323 -122 -473 -20 -27 -220 -231 -445 -454
-478 -475 -573 -587 -678 -802 -63 -130 -129 -353 -120 -409 l3 -21 960 0 960
0 3 256 2 256 -545 0 c-300 0 -545 2 -545 6 0 27 113 154 277 310 346 330 514
503 585 604 153 216 228 431 228 652 0 223 -71 398 -225 552 -123 123 -254
192 -439 230 -94 19 -303 28 -401 17z"/>
<path d="M2025 9335 c-256 -52 -1089 -211 -1555 -296 -63 -12 -121 -23 -128
-25 -23 -7 -2 -24 66 -56 37 -16 144 -65 237 -108 94 -43 215 -98 270 -123 55
-25 134 -60 175 -79 41 -19 104 -48 140 -63 36 -16 75 -35 87 -43 l21 -13 -32
-62 c-99 -186 -188 -354 -281 -532 -32 -60 -79 -150 -105 -200 -26 -49 -75
-143 -109 -207 -33 -65 -87 -169 -120 -230 -62 -121 -144 -277 -261 -503 -178
-342 -330 -649 -330 -665 0 -11 -4 -21 -9 -24 -5 -3 -11 -18 -14 -33 -3 -16
-11 -48 -17 -73 -81 -323 -67 -646 42 -985 11 -33 23 -69 28 -80 4 -11 16 -38
25 -60 92 -218 263 -455 440 -608 163 -142 406 -282 600 -346 111 -37 258 -67
394 -81 68 -6 756 -10 2017 -10 l1914 0 0 475 0 475 -1877 0 c-1141 0 -1907 4
-1952 10 -122 16 -201 39 -301 88 -227 110 -360 337 -360 614 0 86 6 131 36
256 47 195 116 355 422 967 280 560 585 1178 628 1273 24 51 46 65 70 43 5 -4
110 -60 234 -123 124 -64 345 -177 491 -252 146 -75 269 -136 273 -136 13 0 4
24 -70 177 -192 397 -442 926 -620 1308 -183 393 -176 379 -194 381 -8 1 -132
-22 -275 -51z"/>
<path d="M1188 2388 c-16 -12 -17 -96 -11 -1201 l6 -1187 239 0 238 0 0 520 0
520 473 -2 472 -3 3 -517 2 -518 240 0 240 0 0 1195 0 1195 -242 -2 -243 -3 0
-470 0 -470 -470 0 -470 0 -3 473 -2 472 -214 0 c-118 0 -220 2 -228 5 -7 3
-21 0 -30 -7z"/>
<path d="M9073 2393 l-843 -3 0 -1195 0 -1195 910 0 910 0 -2 197 -3 198 -665
0 -665 0 -3 327 -2 328 600 2 601 3 1 193 c0 106 -3 196 -7 200 -4 4 -273 7
-598 7 l-592 0 0 265 0 265 643 -4 642 -4 -2 209 -3 209 -40 0 c-22 0 -419 -1
-882 -2z"/>
<path d="M3590 1196 l0 -1196 518 0 c671 0 755 10 971 118 198 99 346 288 436
556 93 278 91 758 -5 1056 -89 275 -288 500 -522 590 -153 59 -188 62 -820 67
l-578 5 0 -1196z m1114 760 c222 -62 342 -230 377 -527 16 -141 7 -487 -16
-594 -51 -237 -145 -356 -324 -411 -59 -18 -357 -36 -531 -32 l-135 3 -3 784
c-1 466 2 788 7 795 15 18 551 3 625 -18z"/>
<path d="M6000 1196 l0 -1196 240 0 240 0 2 447 3 448 335 6 c427 9 506 21
660 106 121 66 208 158 273 288 104 210 97 535 -16 749 -40 75 -149 192 -221
235 -158 95 -223 102 -938 108 l-578 5 0 -1196z m1060 772 c76 -14 138 -48
187 -101 54 -59 71 -94 82 -167 15 -115 -16 -214 -91 -288 -90 -90 -163 -105
-498 -106 l-255 -1 -3 334 c-2 261 1 337 10 343 17 12 498 0 568 -14z"/>
</g>
</svg>
