<?xml version="1.0" standalone="no"?>
<!DOCTYPE svg PUBLIC "-//W3C//DTD SVG 20010904//EN"
 "http://www.w3.org/TR/2001/REC-SVG-20010904/DTD/svg10.dtd">
<svg version="1.0" xmlns="http://www.w3.org/2000/svg"
 width="1110.000000pt" height="1440.000000pt" viewBox="0 0 1110.000000 1440.000000"
 preserveAspectRatio="xMidYMid meet">
<metadata>
Created by potrace 1.13, written by Peter Selinger 2001-2015
</metadata>
<g transform="translate(0.000000,1440.000000) scale(0.100000,-0.100000)"
fill="#000000" stroke="none">
<path d="M5458 14389 c-3 -8 -60 -13 -178 -16 -190 -4 -282 -15 -375 -45 -74
-24 -71 -22 -230 -99 -345 -165 -517 -335 -840 -824 -343 -522 -1263 -2127
-1602 -2795 -95 -188 -106 -216 -105 -260 1 -68 24 -111 92 -172 65 -60 264
-187 399 -254 215 -106 395 -108 484 -4 56 66 353 554 695 1143 418 717 496
850 647 1102 328 549 441 721 517 786 122 104 269 187 428 239 81 27 110 31
195 32 129 0 190 -16 355 -90 64 -29 203 -124 261 -179 87 -83 251 -344 634
-1013 68 -119 195 -345 290 -515 55 -98 135 -258 135 -270 0 -24 -87 -92 -290
-227 -199 -131 -280 -200 -300 -254 -27 -70 -1 -162 58 -200 49 -33 161 -38
537 -25 570 20 984 55 1033 87 83 54 729 1058 787 1223 8 24 15 76 15 115 0
64 -3 75 -28 105 -19 23 -39 35 -69 40 -101 19 -217 -25 -475 -180 -178 -107
-226 -127 -267 -114 -29 9 -82 95 -296 480 -579 1043 -784 1356 -1069 1640
-189 188 -364 305 -646 433 -163 73 -244 90 -473 95 -107 3 -172 8 -180 16
-15 15 -134 15 -139 0z"/>
<path d="M8830 10236 c-82 -31 -340 -172 -470 -258 -199 -132 -254 -257 -186
-418 81 -191 314 -620 606 -1120 145 -247 498 -865 612 -1070 305 -549 428
-805 480 -995 17 -64 17 -255 0 -320 -27 -102 -37 -131 -68 -195 -95 -196
-300 -370 -518 -442 -149 -48 -582 -68 -1500 -68 l-673 0 -6 293 c-6 310 -14
375 -58 464 -40 80 -116 112 -196 82 -58 -21 -136 -117 -226 -276 -87 -153
-567 -1116 -567 -1137 0 -12 4 -26 9 -31 4 -6 50 -91 101 -190 51 -99 109
-211 130 -250 20 -38 70 -133 110 -210 174 -331 305 -560 349 -609 78 -86 238
-102 303 -30 30 35 40 133 45 471 l6 333 876 0 c862 0 1072 6 1340 36 282 31
483 90 731 214 358 180 672 499 849 865 24 50 47 98 52 107 5 10 9 27 9 37 0
11 4 22 9 25 5 3 11 20 14 38 3 18 10 51 17 73 27 91 50 251 58 404 5 86 11
126 20 129 14 4 16 39 2 44 -6 2 -12 59 -15 133 -7 164 -29 315 -56 383 -5 12
-13 32 -18 45 -57 148 -235 507 -388 782 -153 274 -248 443 -363 640 -70 121
-201 348 -290 505 -130 227 -456 793 -591 1025 -57 98 -230 356 -276 411 -28
33 -67 68 -86 77 -41 20 -127 21 -177 3z"/>
<path d="M5290 9829 c-117 -8 -330 -39 -410 -59 -19 -5 -80 -20 -135 -34 -114
-29 -215 -60 -245 -76 -20 -11 -20 -17 -18 -323 l3 -312 34 -3 c26 -3 62 11
150 56 147 76 273 123 426 158 103 24 142 28 275 28 230 1 350 -29 439 -110
63 -56 74 -84 73 -186 -1 -110 -26 -166 -97 -220 -95 -71 -237 -97 -542 -98
l-163 0 0 -259 0 -259 283 -4 c261 -4 287 -6 347 -27 85 -29 152 -79 187 -138
27 -45 28 -54 28 -168 0 -104 -3 -126 -23 -165 -63 -126 -193 -206 -375 -230
-114 -15 -321 -12 -423 5 -170 29 -432 123 -578 208 -36 21 -59 27 -90 25
l-41 -3 3 -305 c1 -168 2 -312 2 -321 0 -9 8 -19 18 -22 9 -3 49 -17 87 -31
127 -46 366 -101 530 -121 217 -26 613 -21 782 10 350 65 630 237 761 468 134
235 148 587 32 771 -45 71 -123 149 -196 196 -67 44 -219 103 -297 114 -59 9
-69 32 -22 52 19 7 40 14 46 14 7 0 51 19 98 41 71 34 101 57 171 128 88 89
138 168 176 281 28 81 26 331 -3 412 -113 319 -463 492 -1033 511 -74 3 -191
1 -260 -4z"/>
<path d="M885 9640 c-77 -3 -151 -11 -165 -17 -35 -16 -85 -67 -104 -107 -55
-117 14 -198 319 -371 141 -81 252 -154 279 -184 20 -22 20 -22 -12 -84 -28
-56 -56 -106 -119 -218 -12 -20 -41 -69 -65 -110 -40 -66 -87 -145 -138 -234
-22 -38 -105 -180 -172 -292 -85 -145 -267 -463 -310 -542 -72 -131 -198 -390
-198 -406 0 -3 -9 -24 -19 -48 -93 -203 -175 -615 -175 -872 1 -118 26 -328
55 -445 6 -25 13 -60 16 -78 3 -18 9 -35 14 -38 5 -3 9 -15 9 -28 0 -12 4 -26
8 -31 4 -6 14 -28 21 -50 20 -61 104 -232 153 -310 201 -326 512 -590 913
-777 159 -74 239 -96 388 -108 499 -38 3224 -38 3745 0 223 16 221 14 233 439
4 168 4 335 0 371 -16 125 -63 182 -180 219 -173 55 -285 60 -1796 81 -1464
21 -1760 43 -1983 146 -122 56 -267 213 -350 379 -125 250 -109 581 42 868 74
141 261 472 417 740 38 64 101 172 141 240 39 67 109 184 155 261 45 76 83
140 83 143 0 2 14 24 30 48 17 24 30 46 30 49 0 15 74 116 84 116 6 0 20 -6
31 -13 20 -14 115 -65 340 -184 263 -139 340 -150 424 -62 73 76 39 209 -126
484 -37 61 -194 300 -350 532 -204 304 -290 424 -306 428 -100 21 -542 52
-853 60 -132 3 -268 7 -304 8 -36 2 -128 0 -205 -3z"/>
<path d="M8520 3000 c-366 -30 -675 -160 -899 -375 -307 -296 -458 -753 -422
-1274 19 -263 58 -422 156 -626 64 -135 145 -244 256 -350 137 -130 290 -220
484 -283 131 -43 155 -48 383 -81 144 -21 456 -9 607 24 168 36 316 82 457
141 73 31 139 61 146 66 9 8 12 91 12 354 l0 344 -42 0 c-38 0 -52 -8 -128
-71 -255 -212 -504 -319 -744 -319 -177 0 -376 65 -508 166 -133 103 -237 278
-285 480 -23 101 -26 483 -4 579 67 292 212 492 434 595 189 89 426 101 627
33 158 -54 295 -134 474 -276 87 -69 102 -78 135 -75 l36 3 0 358 0 358 -100
45 c-198 90 -407 149 -615 173 -127 15 -352 20 -460 11z"/>
<path d="M1393 1503 l2 -1448 370 0 370 0 2 460 c2 253 3 466 3 473 0 9 69 12
313 12 404 0 525 17 722 102 145 63 340 215 431 338 57 77 110 199 145 330 26
96 36 333 20 439 -50 320 -259 556 -590 666 -206 68 -315 75 -1118 75 l-673 0
3 -1447z m1077 903 c154 -4 197 -8 255 -26 94 -30 119 -44 178 -98 103 -97
139 -233 103 -399 -36 -168 -139 -272 -312 -317 -62 -16 -320 -36 -460 -36
-59 0 -85 4 -94 15 -17 20 -12 842 6 859 7 8 36 11 75 9 35 -1 147 -5 249 -7z"/>
<path d="M3995 2933 c28 -72 306 -825 374 -1013 47 -129 538 -1476 617 -1690
31 -85 60 -159 64 -163 6 -7 830 -11 835 -5 1 2 21 54 44 116 22 61 59 160 81
220 35 95 349 955 449 1232 107 293 250 683 336 915 128 343 145 391 145 399
0 3 -172 5 -382 4 l-383 -3 -67 -195 c-168 -495 -385 -1134 -448 -1320 -38
-113 -88 -259 -111 -325 -23 -66 -45 -133 -48 -150 -7 -32 -29 -40 -41 -15 -5
8 -24 65 -44 125 -19 61 -90 270 -156 465 -193 567 -347 1020 -417 1228 l-65
192 -395 0 c-372 0 -395 -1 -388 -17z"/>
</g>
</svg>
