<?xml version="1.0" standalone="no"?>
<!DOCTYPE svg PUBLIC "-//W3C//DTD SVG 20010904//EN"
 "http://www.w3.org/TR/2001/REC-SVG-20010904/DTD/svg10.dtd">
<svg version="1.0" xmlns="http://www.w3.org/2000/svg"
 width="660.000000pt" height="660.000000pt" viewBox="0 0 660.000000 660.000000"
 preserveAspectRatio="xMidYMid meet">

<g transform="translate(0.000000,660.000000) scale(0.100000,-0.100000)"
fill="#000000" stroke="none">
<path d="M3090 6585 c-145 -30 -245 -83 -356 -188 -46 -43 -98 -102 -118 -131
-36 -55 -866 -1502 -866 -1511 0 -3 82 -46 181 -96 149 -74 184 -88 194 -77 7
7 169 297 360 643 192 347 366 662 389 700 53 94 126 164 211 206 64 31 78 34
160 34 80 0 97 -3 155 -31 70 -33 129 -85 177 -155 32 -47 533 -895 533 -902
0 -2 -88 -71 -197 -153 l-196 -149 438 -3 c241 -1 442 1 446 5 9 10 280 815
276 819 -2 2 -95 -62 -207 -142 -111 -80 -206 -141 -209 -136 -3 5 -150 238
-326 516 -192 305 -338 525 -365 552 -85 85 -233 158 -398 194 -100 22 -189
24 -282 5z"/>
<path d="M4690 4504 c-85 -53 -160 -101 -167 -107 -8 -9 4 -39 51 -122 35 -60
217 -388 404 -727 369 -665 378 -686 370 -808 -9 -121 -79 -214 -210 -277
-126 -61 -145 -63 -681 -63 l-487 0 -2 241 -3 240 -242 -340 c-134 -187 -243
-343 -243 -346 0 -3 109 -161 243 -352 l242 -346 3 241 2 241 598 3 c585 3
598 4 655 25 308 117 532 400 554 700 12 166 -31 318 -151 529 -40 71 -211
377 -381 679 -376 671 -384 685 -393 685 -4 0 -77 -44 -162 -96z"/>
<path d="M2755 4469 c-248 -24 -369 -263 -352 -698 11 -312 82 -469 246 -548
50 -24 68 -27 161 -28 94 0 111 3 160 27 113 56 180 153 222 323 19 78 22 117
22 290 0 171 -3 213 -22 288 -64 260 -202 369 -437 346z m136 -230 c55 -59 64
-115 64 -399 0 -293 -9 -352 -58 -407 -63 -68 -156 -53 -195 30 -36 77 -44
160 -40 415 4 216 6 242 27 294 29 74 59 98 123 98 43 0 54 -4 79 -31z"/>
<path d="M3802 4470 c-4 -3 -15 -22 -25 -43 -37 -81 -207 -226 -301 -257 l-36
-12 0 -109 c0 -110 0 -110 23 -104 50 14 168 78 223 120 l59 46 3 -450 2 -451
125 0 125 0 -2 631 -3 631 -93 1 c-52 1 -97 0 -100 -3z"/>
<path d="M1635 4376 c-88 -18 -259 -52 -380 -75 -121 -23 -236 -45 -255 -49
l-35 -8 65 -31 c36 -17 130 -61 210 -98 80 -37 149 -71 154 -75 4 -5 -21 -64
-57 -132 -35 -67 -96 -184 -135 -258 -39 -74 -103 -196 -142 -270 -224 -425
-248 -492 -237 -670 8 -124 27 -194 84 -308 113 -227 344 -385 601 -412 48 -6
457 -10 910 -10 l822 0 0 210 0 209 -862 3 c-985 3 -917 -3 -1014 93 -60 60
-84 120 -84 214 0 123 30 198 263 666 120 242 220 441 222 443 2 2 103 -47
225 -108 122 -61 223 -110 225 -108 1 2 -82 183 -186 403 -164 348 -191 400
-211 402 -13 1 -95 -13 -183 -31z"/>
<path d="M1758 1255 c-5 -5 -8 -289 -8 -632 l0 -623 130 0 130 0 0 233 0 234
188 6 c212 7 276 20 356 71 88 56 140 141 156 256 20 138 -17 267 -100 350
-90 90 -139 100 -530 107 -173 3 -318 2 -322 -2z m605 -239 c54 -27 80 -69 85
-137 4 -49 0 -65 -21 -102 -42 -71 -74 -81 -259 -85 l-158 -4 0 177 0 176 158
-3 c129 -2 164 -6 195 -22z"/>
<path d="M2927 1253 c-4 -3 -7 -287 -7 -630 l0 -623 480 0 480 0 0 105 0 105
-350 0 -350 0 0 170 0 170 315 0 315 0 0 110 0 110 -315 0 -315 0 0 135 0 135
340 0 341 0 -3 108 -3 107 -461 3 c-253 1 -464 -1 -467 -5z"/>
<path d="M4010 1150 l0 -110 185 0 185 0 0 -520 0 -520 130 0 130 0 0 520 0
520 185 0 186 0 -3 108 -3 107 -497 3 -498 2 0 -110z"/>
</g>
</svg>
