<?xml version="1.0" standalone="no"?>
<!DOCTYPE svg PUBLIC "-//W3C//DTD SVG 20010904//EN"
 "http://www.w3.org/TR/2001/REC-SVG-20010904/DTD/svg10.dtd">
<svg version="1.0" xmlns="http://www.w3.org/2000/svg"
 width="440.000000pt" height="440.000000pt" viewBox="0 0 440.000000 440.000000"
 preserveAspectRatio="xMidYMid meet">
<metadata>
Created by potrace 1.13, written by Peter Selinger 2001-2015
</metadata>
<g transform="translate(0.000000,440.000000) scale(0.100000,-0.100000)"
fill="#000000" stroke="none">
<path d="M2095 4201 c-161 -56 -222 -111 -330 -292 -115 -195 -150 -255 -265
-449 -57 -96 -129 -218 -162 -271 -32 -54 -60 -103 -63 -111 -4 -10 15 -27 59
-53 l66 -38 -28 -14 c-48 -25 -235 -125 -287 -153 -27 -15 -108 -58 -180 -95
-71 -37 -136 -72 -142 -78 -18 -13 -16 -26 4 -34 31 -12 104 -65 110 -79 3 -7
-22 -64 -55 -126 -33 -62 -90 -171 -127 -243 -37 -71 -82 -157 -100 -190 -18
-33 -59 -112 -91 -175 l-59 -115 0 -105 c1 -90 4 -112 25 -155 46 -96 120
-169 230 -225 88 -45 32 -41 903 -70 197 -7 360 -11 362 -8 3 2 8 70 11 151 6
121 5 147 -7 151 -8 3 -144 10 -304 16 -888 33 -827 27 -882 79 -48 46 -41 69
102 336 31 57 72 136 201 383 32 61 65 112 72 112 7 0 60 -31 117 -70 57 -38
109 -70 115 -70 7 0 11 115 12 343 3 423 2 410 15 414 6 2 34 -10 62 -27 29
-16 54 -30 56 -30 2 0 43 66 91 148 48 81 99 167 114 192 28 46 192 323 286
485 73 124 77 130 128 154 51 24 104 27 129 9 24 -18 418 -711 409 -719 -4 -4
-44 -26 -89 -50 -46 -24 -83 -49 -83 -55 0 -10 481 -306 603 -371 l35 -20 -64
-37 c-62 -35 -74 -51 -55 -72 4 -5 50 -90 101 -189 51 -99 110 -211 130 -250
21 -38 71 -135 113 -215 41 -80 96 -185 122 -235 42 -81 46 -95 42 -143 -2
-32 -12 -64 -24 -80 l-20 -27 -399 -5 c-219 -3 -405 -3 -411 -1 -10 2 -13 38
-13 137 0 89 -4 134 -11 134 -18 0 -638 -374 -638 -385 0 -10 607 -377 634
-383 11 -3 15 14 17 90 l3 93 425 -4 425 -4 67 31 c123 56 196 137 237 263 36
109 26 277 -23 369 -25 46 -109 206 -185 353 -33 64 -87 168 -120 230 -32 61
-89 171 -126 242 -37 72 -73 136 -80 143 -11 12 -22 9 -68 -17 -31 -17 -58
-31 -61 -31 -4 0 -6 162 -6 360 0 293 -3 362 -13 366 -12 4 -111 -42 -144 -68
-7 -5 -19 -8 -28 -6 -8 2 -113 174 -233 383 l-217 379 -62 42 c-34 23 -86 49
-116 58 -73 21 -198 20 -262 -3z"/>
<path d="M1885 2691 c-113 -28 -165 -105 -187 -275 -15 -116 0 -260 33 -331
67 -143 249 -176 359 -66 65 65 84 134 84 306 0 172 -19 241 -84 306 -37 37
-58 49 -99 58 -57 12 -63 12 -106 2z m104 -145 c32 -34 41 -82 41 -221 0 -66
-4 -137 -9 -158 -26 -111 -140 -117 -170 -10 -13 46 -14 273 -2 326 13 53 46
87 86 87 20 0 40 -9 54 -24z"/>
<path d="M2303 2648 c-6 -7 -13 -35 -16 -63 -4 -27 -15 -104 -26 -170 -10 -66
-17 -123 -14 -127 2 -5 27 -8 55 -8 39 0 57 6 80 25 32 27 84 33 119 15 65
-35 65 -195 0 -230 -11 -5 -37 -10 -59 -10 -39 0 -71 24 -85 63 -5 14 -18 17
-66 17 -33 0 -63 -4 -66 -10 -3 -5 -1 -29 6 -52 16 -61 71 -112 144 -134 150
-43 292 49 320 207 10 52 -11 139 -45 192 -49 77 -150 113 -229 81 -23 -9 -44
-14 -46 -12 -3 3 -2 26 1 51 l7 47 131 0 c72 0 137 4 144 9 9 5 12 25 10 62
l-3 54 -176 3 c-133 2 -179 -1 -186 -10z"/>
<path d="M1655 867 c-3 -6 -4 -165 -3 -352 l3 -340 70 0 70 0 3 128 3 127 96
0 c117 0 165 14 214 60 37 35 69 113 69 170 0 101 -67 189 -159 209 -75 16
-360 15 -366 -2z m328 -129 c34 -18 46 -40 46 -83 0 -73 -34 -95 -148 -95
l-81 0 0 95 0 95 81 0 c44 0 90 -5 102 -12z"/>
<path d="M2315 868 c-3 -7 -4 -166 -3 -353 l3 -340 70 0 70 0 3 128 3 127 103
0 c80 0 115 4 149 19 157 68 170 328 20 403 -44 21 -63 23 -230 26 -147 3
-184 1 -188 -10z m328 -130 c34 -18 46 -40 46 -83 0 -73 -34 -95 -148 -95
l-81 0 0 95 0 95 81 0 c44 0 90 -5 102 -12z"/>
</g>
</svg>
