<?xml version="1.0" encoding="iso-8859-1"?>
<!-- Generator: Adobe Illustrator 18.0.0, SVG Export Plug-In . SVG Version: 6.00 Build 0)  -->
<!DOCTYPE svg PUBLIC "-//W3C//DTD SVG 1.1//EN" "http://www.w3.org/Graphics/SVG/1.1/DTD/svg11.dtd">
<svg version="1.1" id="Capa_1" xmlns="http://www.w3.org/2000/svg" xmlns:xlink="http://www.w3.org/1999/xlink" x="0px" y="0px"
	 viewBox="0 0 370.129 370.129" style="enable-background:new 0 0 370.129 370.129;" xml:space="preserve">
<g>
	<path d="M335.948,199.598l-45.662-79.09l-3.189,22.826l-22.791-7.826l45.771,79.279l0.24,0.402
		c3.098,4.998,4.734,10.771,4.734,16.699c0,17.375-14.016,31.539-31.336,31.777l-0.197-0.014l-0.502,0.018h-61.801v-20l-44.311,35
		l44.311,35v-20h62.057c0.02,0,0.043,0,0.064,0l0.172-0.002c33.957-0.127,61.543-27.793,61.543-61.779
		C345.051,220.457,341.905,209.297,335.948,199.598z"/>
	<path d="M151.051,278.084l15-14.414H86.83c-11.318,0-21.863-6.09-27.522-15.891c-5.658-9.801-5.658-21.98-0.002-31.781
		l27.936-48.385l17.124,10.113l-7.604-55.953l-52.67,20.355l17.317,10.228L33.326,201c-10.998,19.053-10.998,42.725,0,61.779
		C44.328,281.832,64.83,293.67,86.83,293.67h79.221L151.051,278.084z"/>
	<path d="M115.032,119.484l42.488-73.596C163.18,36.088,173.725,30,185.043,30c11.316,0,21.863,6.088,27.521,15.889l23.705,41.061
		l-17.967,10.045l52.174,21.596l8.926-55.756l-16.944,9.474l-23.913-41.419C227.543,11.836,207.043,0,185.043,0
		c-22.002,0-42.502,11.836-53.504,30.889l-42.488,73.596l22.324-7.598L115.032,119.484z"/>
	<path d="M199.987,221.834v-21.947h12.27v-20.209h-12.27v-67.844H180.78l-44.75,71.885v16.168h43.449v21.947H199.987z
		 M159.992,179.967l19.775-31.469l-0.289,8.373v23.074L159.992,179.967z"/>
	<polygon points="107.866,315.654 94.905,315.654 94.905,370.129 130.907,370.129 130.907,360.352 107.866,360.352 	"/>
	<path d="M155.705,315.654h-19.121v54.475h19.121c18.561,0,26.32-6.982,26.32-25.84v-2.793
		C182.026,322.639,174.266,315.654,155.705,315.654z M168.826,344.289c0,10.895-3.041,16.063-13.842,16.063h-5.439v-34.92h5.439
		c10.801,0,13.842,5.168,13.842,16.064V344.289z"/>
	<path d="M210.106,315.654h-20.48v54.475h12.959v-19.555h7.521c10.16,0,21.68-2.234,21.68-16.762v-1.396
		C231.785,317.959,220.266,315.654,210.106,315.654z M218.666,333.465c0,6.145-4.48,7.332-8.002,7.332h-8.08v-15.365h8.08
		c3.521,0,8.002,1.188,8.002,7.334V333.465z"/>
	<polygon points="238.344,370.129 276.504,370.129 276.504,360.352 251.303,360.352 251.303,347.223 272.504,347.223 
		272.504,337.445 251.303,337.445 251.303,325.432 276.504,325.432 276.504,315.654 238.344,315.654 	"/>
</g>
<g>
</g>
<g>
</g>
<g>
</g>
<g>
</g>
<g>
</g>
<g>
</g>
<g>
</g>
<g>
</g>
<g>
</g>
<g>
</g>
<g>
</g>
<g>
</g>
<g>
</g>
<g>
</g>
<g>
</g>
</svg>
