<?xml version="1.0" encoding="utf-8"?>
<!-- Generator: Adobe Illustrator 16.0.0, SVG Export Plug-In . SVG Version: 6.00 Build 0)  -->
<!DOCTYPE svg PUBLIC "-//W3C//DTD SVG 1.1//EN" "http://www.w3.org/Graphics/SVG/1.1/DTD/svg11.dtd">
<svg version="1.1" id="Ebene_2" xmlns="http://www.w3.org/2000/svg" xmlns:xlink="http://www.w3.org/1999/xlink" x="0px" y="0px"
	 width="494.299px" height="639.455px" viewBox="0 0 494.299 639.455" enable-background="new 0 0 494.299 639.455"
	 xml:space="preserve">
<g>
	<rect x="57.5" y="16.5" fill="none" stroke="#000000" stroke-width="3" stroke-miterlimit="10" width="67" height="67"/>
	<rect x="20.5" y="175.5" fill="none" stroke="#000000" stroke-width="3" stroke-miterlimit="10" width="67" height="67"/>
	<rect x="405.5" y="175.5" fill="none" stroke="#000000" stroke-width="3" stroke-miterlimit="10" width="67" height="67"/>
	<rect x="247.5" y="333.5" fill="#FFC733" stroke="#000000" stroke-width="3" stroke-miterlimit="10" width="67" height="67"/>
	<rect x="405.5" y="333.5" fill="#FFC733" stroke="#000000" stroke-width="3" stroke-miterlimit="10" width="67" height="67"/>
	<rect x="133.5" y="175.5" fill="#FFC733" stroke="#000000" stroke-width="3" stroke-miterlimit="10" width="67" height="67"/>
	<circle fill="none" stroke="#000000" stroke-width="3" stroke-miterlimit="10" cx="248.486" cy="49.014" r="32.514"/>
	<circle fill="none" stroke="#000000" stroke-width="3" stroke-miterlimit="10" cx="281.486" cy="208.014" r="32.514"/>
	<rect x="59.028" y="32.596" fill="none" width="65.472" height="46.528"/>
	<text transform="matrix(1 0 0 1 84.7153 60.0493)" font-family="'Montserrat-Regular'" font-size="37">1</text>
	<rect x="21.264" y="191" fill="none" width="65.472" height="46.527"/>
	<text transform="matrix(1 0 0 1 43.3081 218.4536)" font-family="'Montserrat-Regular'" font-size="37">3</text>
	<rect x="134.264" y="191" fill="none" width="65.472" height="46.527"/>
	<text transform="matrix(1 0 0 1 156.4185 218.4536)" font-family="'Montserrat-Regular'" font-size="37">4</text>
	<rect x="248.75" y="191" fill="none" width="65.472" height="46.527"/>
	<text transform="matrix(1 0 0 1 270.7759 218.4536)" font-family="'Montserrat-Regular'" font-size="37">5</text>
	<rect x="406.264" y="191" fill="none" width="65.473" height="46.527"/>
	<text transform="matrix(1 0 0 1 427.5313 218.4536)" font-family="'Montserrat-Regular'" font-size="37">6</text>
	<rect x="248.264" y="349.39" fill="none" width="65.472" height="46.527"/>
	<text transform="matrix(1 0 0 1 270.5298 376.8438)" font-family="'Montserrat-Regular'" font-size="37">7</text>
	<rect x="406.264" y="349.39" fill="none" width="65.472" height="46.527"/>
	<text transform="matrix(1 0 0 1 427.2344 376.8438)" font-family="'Montserrat-Regular'" font-size="37">8</text>
	<rect x="216.236" y="32.596" fill="none" width="65.472" height="46.527"/>
	<text transform="matrix(1 0 0 1 238.0757 60.0493)" font-family="'Montserrat-Regular'" font-size="37">2</text>
	<line fill="none" stroke="#000000" stroke-width="3" stroke-miterlimit="10" x1="124" y1="49.5" x2="216" y2="49.5"/>
	<line fill="none" stroke="#000000" stroke-width="3" stroke-miterlimit="10" x1="54" y1="129.5" x2="282" y2="129.5"/>
	<line fill="none" stroke="#000000" stroke-width="3" stroke-miterlimit="10" x1="315" y1="208.5" x2="407" y2="208.5"/>
	<line fill="none" stroke="#000000" stroke-width="4" stroke-miterlimit="10" x1="281" y1="288" x2="439" y2="288"/>
	<line fill="none" stroke="#000000" stroke-width="3" stroke-miterlimit="10" x1="168.5" y1="50" x2="168.5" y2="176"/>
	<line fill="none" stroke="#000000" stroke-width="3" stroke-miterlimit="10" x1="360.5" y1="208" x2="360.5" y2="288"/>
	<line fill="none" stroke="#000000" stroke-width="3" stroke-miterlimit="10" x1="53.5" y1="128" x2="53.5" y2="176"/>
	<line fill="none" stroke="#000000" stroke-width="3" stroke-miterlimit="10" x1="280.5" y1="129" x2="280.5" y2="177"/>
	<line fill="none" stroke="#000000" stroke-width="3" stroke-miterlimit="10" x1="281.5" y1="286" x2="281.5" y2="334"/>
	<line fill="none" stroke="#000000" stroke-width="3" stroke-miterlimit="10" x1="438.5" y1="286" x2="438.5" y2="334"/>
	<rect x="24" y="483" fill="#FFC733" stroke="#000000" stroke-width="2" stroke-miterlimit="10" width="48" height="47"/>
	<rect x="24" y="552" fill="none" stroke="#000000" stroke-width="2" stroke-miterlimit="10" width="48" height="47"/>
	<circle fill="none" stroke="#000000" stroke-width="2.2618" stroke-miterlimit="10" cx="233.486" cy="576.014" r="24.514"/>
	<circle fill="#FFC733" stroke="#000000" stroke-width="2.2618" stroke-miterlimit="10" cx="233.486" cy="506.014" r="24.514"/>
	<rect x="82.835" y="513.478" fill="none" width="388.9" height="145.871"/>
	<text transform="matrix(1 0 0 1 82.835 523.8652)"><tspan x="0" y="0" font-family="'Montserrat-Regular'" font-size="14">Color blind male</tspan><tspan x="116.058" y="0" font-family="'Montserrat-Regular'" font-size="14" letter-spacing="24">	</tspan><tspan x="144" y="0" font-family="'Montserrat-Regular'" font-size="14" letter-spacing="32">	</tspan><tspan x="180" y="0" font-family="'Montserrat-Regular'" font-size="14">Color blind female</tspan><tspan x="0" y="67.2" font-family="'Montserrat-Regular'" font-size="14">Normal color </tspan><tspan x="96.024" y="67.2" font-family="'Montserrat-Regular'" font-size="14" letter-spacing="8">	</tspan><tspan x="108" y="67.2" font-family="'Montserrat-Regular'" font-size="14" letter-spacing="32">		</tspan><tspan x="180" y="67.2" font-family="'Montserrat-Regular'" font-size="14">Normal color vision</tspan><tspan x="0" y="84" font-family="'Montserrat-Regular'" font-size="14">vision male</tspan><tspan x="79.673" y="84" font-family="'Montserrat-Regular'" font-size="14" letter-spacing="24">	</tspan><tspan x="108" y="84" font-family="'Montserrat-Regular'" font-size="14" letter-spacing="32">		</tspan><tspan x="180" y="84" font-family="'Montserrat-Regular'" font-size="14">female</tspan></text>
	<rect x="24" y="447.964" fill="none" width="184.404" height="26.605"/>
	<text transform="matrix(1 0 0 1 24 458.3516)" font-family="'Montserrat-Regular'" font-size="14">KEY</text>
</g>
</svg>
