<?xml version="1.0" encoding="utf-8"?>
<!-- Generator: Adobe Illustrator 16.0.0, SVG Export Plug-In . SVG Version: 6.00 Build 0)  -->
<!DOCTYPE svg PUBLIC "-//W3C//DTD SVG 1.1//EN" "http://www.w3.org/Graphics/SVG/1.1/DTD/svg11.dtd">
<svg version="1.1" xmlns="http://www.w3.org/2000/svg" xmlns:xlink="http://www.w3.org/1999/xlink" x="0px" y="0px"
	 width="494.299px" height="639.455px" viewBox="0 0 494.299 639.455" enable-background="new 0 0 494.299 639.455"
	 xml:space="preserve">
<g id="Ebene_2">
	<g>
		<rect x="57.5" y="16.5" fill="none" stroke="#000000" stroke-width="3" stroke-miterlimit="10" width="67" height="67"/>
		<rect x="20.5" y="175.5" fill="none" stroke="#000000" stroke-width="3" stroke-miterlimit="10" width="67" height="67"/>
		<rect x="405.5" y="175.5" fill="none" stroke="#000000" stroke-width="3" stroke-miterlimit="10" width="67" height="67"/>
		<rect x="247.5" y="333.5" fill="#FFC733" stroke="#000000" stroke-width="3" stroke-miterlimit="10" width="67" height="67"/>
		<rect x="405.5" y="333.5" fill="#FFC733" stroke="#000000" stroke-width="3" stroke-miterlimit="10" width="67" height="67"/>
		<rect x="133.5" y="175.5" fill="#FFC733" stroke="#000000" stroke-width="3" stroke-miterlimit="10" width="67" height="67"/>
		<circle fill="none" stroke="#000000" stroke-width="3" stroke-miterlimit="10" cx="248.486" cy="49.014" r="32.514"/>
		<circle fill="none" stroke="#000000" stroke-width="3" stroke-miterlimit="10" cx="281.486" cy="208.014" r="32.514"/>
		<g>
			<path d="M85.789,34.187h9.397v25.863h-4.144V38.071h-5.254V34.187z"/>
		</g>
		<g>
			<path d="M46.157,196.476v-3.885h15.134v3.404l-6.254,6.993c2.368,0.074,4.219,0.82,5.551,2.238
				c1.332,1.419,1.998,3.114,1.998,5.087c0,2.64-0.895,4.712-2.683,6.216c-1.789,1.505-4.089,2.257-6.9,2.257
				c-2.813,0-5.563-0.9-8.251-2.701l1.85-3.515c2.121,1.48,4.341,2.22,6.66,2.22c1.504,0,2.744-0.352,3.719-1.054
				c0.974-0.703,1.461-1.714,1.461-3.034c0-1.319-0.543-2.374-1.628-3.164c-1.086-0.789-2.59-1.184-4.514-1.184
				c-0.962,0-1.888,0.136-2.775,0.407v-3.33l5.994-6.956H46.157z"/>
		</g>
		<g>
			<path d="M168.887,207.982v-4.736h4.145v4.736h3.107v3.959h-3.107v6.512h-4.145v-6.512h-11.1v-3.848l9.509-15.503h4.773
				l-9.361,15.392H168.887z"/>
		</g>
		<g>
			<path d="M288.758,192.554v3.959h-10.915v6.364c1.085-0.592,2.318-0.888,3.699-0.888c2.418,0,4.502,0.728,6.253,2.183
				c1.752,1.456,2.628,3.429,2.628,5.92c0,2.492-0.913,4.557-2.738,6.197c-1.826,1.641-4.07,2.46-6.734,2.46
				c-3.478,0-6.253-1.159-8.325-3.478l2.331-3.182c0.197,0.197,0.463,0.432,0.796,0.703c0.333,0.272,1.018,0.635,2.054,1.092
				s2.17,0.685,3.403,0.685s2.355-0.37,3.367-1.11c1.012-0.74,1.518-1.819,1.518-3.237s-0.537-2.516-1.609-3.293
				c-1.073-0.777-2.431-1.166-4.07-1.166c-1.641,0-3.2,0.407-4.681,1.221l-1.85-1.998v-12.432H288.758z"/>
		</g>
		<g>
			<path d="M440.629,196.032c-2.295,0-3.984,0.777-5.068,2.331c-1.086,1.554-1.641,3.651-1.666,6.29
				c0.617-0.69,1.504-1.338,2.664-1.943c1.16-0.604,2.441-0.906,3.848-0.906c2.318,0,4.262,0.771,5.828,2.313
				c1.566,1.542,2.35,3.589,2.35,6.142c0,2.553-0.846,4.606-2.535,6.16c-1.689,1.554-3.816,2.331-6.383,2.331
				c-4.143,0-7.006-1.85-8.584-5.55c-0.887-2.121-1.332-4.514-1.332-7.178s0.283-4.884,0.852-6.66
				c0.566-1.776,1.344-3.182,2.332-4.218c1.924-2.022,4.285-3.034,7.084-3.034c2.801,0,5.334,0.876,7.604,2.627l-2.182,3.219
				c-0.568-0.493-1.326-0.937-2.275-1.332C442.213,196.229,441.369,196.032,440.629,196.032z M439.834,205.652
				c-1.494,0-2.738,0.413-3.738,1.239c-0.998,0.827-1.498,1.9-1.498,3.219c0,1.32,0.48,2.455,1.443,3.404
				c0.961,0.95,2.17,1.424,3.625,1.424s2.664-0.425,3.627-1.276c0.961-0.851,1.443-1.936,1.443-3.256
				c0-1.319-0.445-2.442-1.332-3.367C442.516,206.114,441.326,205.652,439.834,205.652z"/>
		</g>
		<g>
			<path d="M272.232,358.418v-7.438h18.204v3.885l-10.952,21.979h-4.811l10.693-21.904h-9.176v3.479H272.232z"/>
		</g>
		<g>
			<path d="M432.783,352.424c1.652-1.308,3.725-1.961,6.217-1.961c2.49,0,4.563,0.653,6.217,1.961
				c1.652,1.307,2.479,2.953,2.479,4.939c0,1.985-0.926,3.742-2.775,5.271c2.49,1.58,3.736,3.799,3.736,6.66
				c0,2.221-0.887,4.083-2.664,5.588c-1.775,1.504-4.105,2.256-6.992,2.256s-5.217-0.752-6.992-2.256
				c-1.777-1.505-2.664-3.367-2.664-5.588c0-2.861,1.244-5.08,3.736-6.66c-1.85-1.529-2.775-3.286-2.775-5.271
				C430.305,355.377,431.131,353.73,432.783,352.424z M435.373,372.273c1.135,0.729,2.344,1.092,3.627,1.092
				c1.281,0,2.49-0.363,3.625-1.092c1.135-0.727,1.703-1.77,1.703-3.126s-0.543-2.405-1.629-3.146s-2.318-1.109-3.699-1.109
				s-2.615,0.369-3.699,1.109c-1.086,0.74-1.629,1.789-1.629,3.146S434.238,371.547,435.373,372.273z M435.725,360.508
				c0.926,0.752,2.018,1.129,3.275,1.129s2.35-0.377,3.273-1.129c0.926-0.752,1.389-1.678,1.389-2.775s-0.463-2.016-1.389-2.756
				c-0.924-0.74-2.016-1.11-3.273-1.11s-2.35,0.37-3.275,1.11c-0.924,0.74-1.387,1.658-1.387,2.756S434.801,359.756,435.725,360.508
				z"/>
		</g>
		<g>
			<path d="M251.802,44.287c0.74-1.011,1.11-2.035,1.11-3.071s-0.395-1.917-1.184-2.646c-0.79-0.727-1.789-1.091-2.997-1.091
				c-2.122,0-3.885,1.085-5.291,3.256l-3.516-2.035c1.135-1.702,2.387-2.984,3.756-3.848s3.132-1.295,5.291-1.295
				c2.158,0,4.052,0.685,5.68,2.054s2.441,3.237,2.441,5.605c0,1.332-0.346,2.603-1.035,3.811c-0.691,1.209-1.961,2.763-3.812,4.662
				l-6.068,6.179h11.729v4.181h-17.686v-3.7l7.844-7.881C249.817,46.692,251.063,45.299,251.802,44.287z"/>
		</g>
		<line fill="none" stroke="#000000" stroke-width="3" stroke-miterlimit="10" x1="124" y1="49.5" x2="216" y2="49.5"/>
		<line fill="none" stroke="#000000" stroke-width="3" stroke-miterlimit="10" x1="54" y1="129.5" x2="282" y2="129.5"/>
		<line fill="none" stroke="#000000" stroke-width="3" stroke-miterlimit="10" x1="315" y1="208.5" x2="407" y2="208.5"/>
		<line fill="none" stroke="#000000" stroke-width="4" stroke-miterlimit="10" x1="281" y1="288" x2="439" y2="288"/>
		<line fill="none" stroke="#000000" stroke-width="3" stroke-miterlimit="10" x1="168.5" y1="50" x2="168.5" y2="176"/>
		<line fill="none" stroke="#000000" stroke-width="3" stroke-miterlimit="10" x1="360.5" y1="208" x2="360.5" y2="288"/>
		<line fill="none" stroke="#000000" stroke-width="3" stroke-miterlimit="10" x1="53.5" y1="128" x2="53.5" y2="176"/>
		<line fill="none" stroke="#000000" stroke-width="3" stroke-miterlimit="10" x1="280.5" y1="129" x2="280.5" y2="177"/>
		<line fill="none" stroke="#000000" stroke-width="3" stroke-miterlimit="10" x1="281.5" y1="286" x2="281.5" y2="334"/>
		<line fill="none" stroke="#000000" stroke-width="3" stroke-miterlimit="10" x1="438.5" y1="286" x2="438.5" y2="334"/>
		<rect x="24" y="483" fill="#FFC733" stroke="#000000" stroke-width="2" stroke-miterlimit="10" width="48" height="47"/>
		<rect x="24" y="552" fill="none" stroke="#000000" stroke-width="2" stroke-miterlimit="10" width="48" height="47"/>
		<circle fill="none" stroke="#000000" stroke-width="2.2618" stroke-miterlimit="10" cx="233.486" cy="576.014" r="24.514"/>
		<circle fill="#FFC733" stroke="#000000" stroke-width="2.2618" stroke-miterlimit="10" cx="233.486" cy="506.014" r="24.514"/>
		<g>
			<path d="M88.659,522.367c0.569,0,1.059-0.096,1.47-0.287s0.84-0.497,1.288-0.917l1.064,1.092
				c-1.036,1.148-2.294,1.723-3.773,1.723c-1.479,0-2.707-0.477-3.682-1.429c-0.975-0.951-1.463-2.155-1.463-3.611
				s0.497-2.67,1.491-3.641c0.994-0.971,2.249-1.456,3.766-1.456s2.784,0.561,3.801,1.681l-1.05,1.147
				c-0.467-0.447-0.908-0.761-1.323-0.938c-0.416-0.178-0.903-0.267-1.463-0.267c-0.99,0-1.82,0.32-2.492,0.959
				c-0.672,0.64-1.008,1.456-1.008,2.45s0.333,1.825,1.001,2.492C86.953,522.033,87.744,522.367,88.659,522.367z"/>
			<path d="M100.292,522.864c-0.747,0.742-1.68,1.113-2.8,1.113s-2.053-0.371-2.8-1.113c-0.747-0.742-1.12-1.649-1.12-2.723
				s0.373-1.981,1.12-2.724c0.747-0.742,1.68-1.112,2.8-1.112s2.053,0.37,2.8,1.112s1.12,1.65,1.12,2.724
				S101.039,522.122,100.292,522.864z M95.806,521.898c0.443,0.452,1.006,0.679,1.687,0.679s1.244-0.227,1.687-0.679
				c0.443-0.453,0.665-1.038,0.665-1.757s-0.222-1.305-0.665-1.758c-0.443-0.452-1.006-0.679-1.687-0.679s-1.244,0.227-1.687,0.679
				c-0.443,0.453-0.665,1.039-0.665,1.758S95.362,521.445,95.806,521.898z"/>
			<path d="M104.759,523.865h-1.568v-10.388h1.568V523.865z"/>
			<path d="M113.256,522.864c-0.747,0.742-1.68,1.113-2.8,1.113s-2.053-0.371-2.8-1.113c-0.747-0.742-1.12-1.649-1.12-2.723
				s0.373-1.981,1.12-2.724c0.747-0.742,1.68-1.112,2.8-1.112s2.053,0.37,2.8,1.112s1.12,1.65,1.12,2.724
				S114.003,522.122,113.256,522.864z M108.77,521.898c0.443,0.452,1.006,0.679,1.687,0.679s1.244-0.227,1.687-0.679
				c0.443-0.453,0.665-1.038,0.665-1.757s-0.222-1.305-0.665-1.758c-0.443-0.452-1.006-0.679-1.687-0.679s-1.244,0.227-1.687,0.679
				c-0.443,0.453-0.665,1.039-0.665,1.758S108.326,521.445,108.77,521.898z"/>
			<path d="M120.061,517.888c-0.775,0-1.358,0.252-1.75,0.756s-0.588,1.181-0.588,2.029v3.192h-1.568v-7.448h1.568v1.498
				c0.252-0.467,0.595-0.849,1.029-1.147s0.894-0.453,1.379-0.462l0.014,1.582C120.117,517.888,120.088,517.888,120.061,517.888z"/>
			<path d="M129.538,516.306c0.999,0,1.853,0.345,2.562,1.035c0.709,0.691,1.064,1.61,1.064,2.759c0,1.147-0.353,2.081-1.057,2.8
				s-1.526,1.078-2.464,1.078s-1.78-0.411-2.527-1.232v1.12h-1.568v-10.388h1.568v4.241
				C127.732,516.776,128.539,516.306,129.538,516.306z M127.088,520.155c0,0.709,0.215,1.29,0.644,1.743
				c0.429,0.452,0.952,0.679,1.568,0.679c0.616,0,1.152-0.224,1.61-0.672c0.457-0.448,0.686-1.029,0.686-1.743
				s-0.224-1.307-0.672-1.778c-0.448-0.471-0.984-0.707-1.61-0.707s-1.153,0.236-1.582,0.707
				C127.303,518.855,127.088,519.446,127.088,520.155z"/>
			<path d="M136.524,523.865h-1.568v-10.388h1.568V523.865z"/>
			<path d="M138.89,514.934c-0.196-0.196-0.294-0.43-0.294-0.7s0.098-0.504,0.294-0.7c0.196-0.196,0.429-0.294,0.7-0.294
				c0.271,0,0.504,0.098,0.7,0.294c0.196,0.196,0.294,0.43,0.294,0.7s-0.098,0.504-0.294,0.7c-0.196,0.195-0.429,0.294-0.7,0.294
				C139.319,515.228,139.086,515.129,138.89,514.934z M140.36,523.865h-1.568v-7.448h1.568V523.865z"/>
			<path d="M144.196,519.833v4.032h-1.568v-7.448h1.568v1.358c0.252-0.457,0.6-0.816,1.043-1.078
				c0.443-0.261,0.921-0.392,1.435-0.392c0.84,0,1.519,0.257,2.037,0.77c0.518,0.514,0.777,1.256,0.777,2.226v4.564h-1.568v-4.088
				c0-1.372-0.569-2.059-1.708-2.059c-0.541,0-1.013,0.181-1.414,0.539C144.396,518.617,144.196,519.143,144.196,519.833z"/>
			<path d="M152.246,522.913c-0.7-0.709-1.05-1.643-1.05-2.8s0.359-2.081,1.078-2.772c0.719-0.69,1.575-1.035,2.569-1.035
				c0.994,0,1.794,0.42,2.401,1.26v-4.088h1.568v10.388h-1.568v-1.12c-0.579,0.821-1.423,1.232-2.534,1.232
				C153.767,523.978,152.946,523.623,152.246,522.913z M152.764,520.176c0,0.715,0.229,1.296,0.686,1.743
				c0.457,0.448,0.994,0.672,1.61,0.672s1.139-0.226,1.568-0.679c0.429-0.452,0.644-1.033,0.644-1.743
				c0-0.709-0.215-1.302-0.644-1.777c-0.429-0.477-0.957-0.715-1.582-0.715c-0.625,0-1.162,0.238-1.61,0.715
				C152.988,518.867,152.764,519.462,152.764,520.176z"/>
			<path d="M166.484,519.833v4.032h-1.568v-7.448h1.568v1.358c0.224-0.457,0.562-0.816,1.015-1.078
				c0.453-0.261,0.94-0.392,1.463-0.392c1.176,0,1.974,0.485,2.394,1.456c0.737-0.971,1.656-1.456,2.758-1.456
				c0.84,0,1.519,0.257,2.037,0.77c0.518,0.514,0.777,1.256,0.777,2.226v4.564h-1.568v-4.088c0-1.372-0.569-2.059-1.708-2.059
				c-0.532,0-0.997,0.171-1.393,0.512c-0.397,0.341-0.604,0.838-0.623,1.491v4.144h-1.568v-4.088c0-0.709-0.126-1.229-0.378-1.562
				c-0.252-0.331-0.649-0.497-1.19-0.497c-0.541,0-1.013,0.181-1.414,0.539C166.685,518.617,166.484,519.143,166.484,519.833z"/>
			<path d="M185.146,523.865h-1.428v-0.994c-0.616,0.737-1.442,1.106-2.478,1.106c-0.775,0-1.417-0.22-1.925-0.658
				s-0.763-1.024-0.763-1.757s0.271-1.281,0.812-1.646c0.541-0.363,1.274-0.546,2.198-0.546h2.03v-0.28
				c0-0.989-0.551-1.483-1.652-1.483c-0.691,0-1.409,0.252-2.156,0.756l-0.7-0.98c0.905-0.718,1.932-1.077,3.08-1.077
				c0.877,0,1.594,0.222,2.149,0.665s0.833,1.141,0.833,2.093V523.865z M183.578,521.093v-0.63h-1.764
				c-1.129,0-1.694,0.355-1.694,1.064c0,0.364,0.14,0.642,0.42,0.833s0.669,0.287,1.169,0.287c0.499,0,0.936-0.141,1.309-0.42
				C183.391,521.947,183.578,521.569,183.578,521.093z"/>
			<path d="M188.897,523.865h-1.568v-10.388h1.568V523.865z"/>
			<path d="M198.095,520.827h-5.838c0.037,0.541,0.285,0.978,0.742,1.31c0.458,0.331,0.98,0.496,1.568,0.496
				c0.933,0,1.643-0.294,2.128-0.882l0.896,0.98c-0.803,0.831-1.848,1.246-3.136,1.246c-1.045,0-1.934-0.348-2.667-1.043
				c-0.732-0.695-1.099-1.629-1.099-2.801c0-1.171,0.373-2.102,1.12-2.793c0.747-0.69,1.626-1.035,2.639-1.035
				s1.874,0.306,2.583,0.917c0.709,0.611,1.064,1.453,1.064,2.526V520.827z M192.257,519.596h4.27c0-0.626-0.196-1.106-0.588-1.442
				c-0.392-0.336-0.875-0.504-1.449-0.504s-1.09,0.175-1.547,0.524C192.486,518.524,192.257,518.998,192.257,519.596z"/>
			<path d="M268.659,522.367c0.569,0,1.059-0.096,1.47-0.287s0.84-0.497,1.288-0.917l1.064,1.092
				c-1.036,1.148-2.294,1.723-3.773,1.723c-1.479,0-2.707-0.477-3.682-1.429c-0.975-0.951-1.463-2.155-1.463-3.611
				s0.497-2.67,1.491-3.641c0.994-0.971,2.249-1.456,3.766-1.456s2.784,0.561,3.801,1.681l-1.05,1.147
				c-0.467-0.447-0.908-0.761-1.323-0.938c-0.416-0.178-0.903-0.267-1.463-0.267c-0.99,0-1.82,0.32-2.492,0.959
				c-0.672,0.64-1.008,1.456-1.008,2.45s0.333,1.825,1.001,2.492C266.953,522.033,267.744,522.367,268.659,522.367z"/>
			<path d="M280.292,522.864c-0.747,0.742-1.68,1.113-2.8,1.113s-2.053-0.371-2.8-1.113c-0.747-0.742-1.12-1.649-1.12-2.723
				s0.373-1.981,1.12-2.724c0.747-0.742,1.68-1.112,2.8-1.112s2.053,0.37,2.8,1.112s1.12,1.65,1.12,2.724
				S281.039,522.122,280.292,522.864z M275.806,521.898c0.443,0.452,1.006,0.679,1.687,0.679s1.244-0.227,1.687-0.679
				c0.443-0.453,0.665-1.038,0.665-1.757s-0.222-1.305-0.665-1.758c-0.443-0.452-1.006-0.679-1.687-0.679s-1.244,0.227-1.687,0.679
				c-0.443,0.453-0.665,1.039-0.665,1.758S275.362,521.445,275.806,521.898z"/>
			<path d="M284.759,523.865h-1.568v-10.388h1.568V523.865z"/>
			<path d="M293.256,522.864c-0.747,0.742-1.68,1.113-2.8,1.113s-2.053-0.371-2.8-1.113c-0.747-0.742-1.12-1.649-1.12-2.723
				s0.373-1.981,1.12-2.724c0.747-0.742,1.68-1.112,2.8-1.112s2.053,0.37,2.8,1.112s1.12,1.65,1.12,2.724
				S294.003,522.122,293.256,522.864z M288.77,521.898c0.443,0.452,1.006,0.679,1.687,0.679s1.244-0.227,1.687-0.679
				c0.443-0.453,0.665-1.038,0.665-1.757s-0.222-1.305-0.665-1.758c-0.443-0.452-1.006-0.679-1.687-0.679s-1.244,0.227-1.687,0.679
				c-0.443,0.453-0.665,1.039-0.665,1.758S288.326,521.445,288.77,521.898z"/>
			<path d="M300.061,517.888c-0.775,0-1.358,0.252-1.75,0.756s-0.588,1.181-0.588,2.029v3.192h-1.568v-7.448h1.568v1.498
				c0.252-0.467,0.595-0.849,1.029-1.147s0.894-0.453,1.379-0.462l0.014,1.582C300.117,517.888,300.088,517.888,300.061,517.888z"/>
			<path d="M309.538,516.306c0.999,0,1.853,0.345,2.562,1.035c0.709,0.691,1.064,1.61,1.064,2.759c0,1.147-0.353,2.081-1.057,2.8
				s-1.526,1.078-2.464,1.078s-1.78-0.411-2.527-1.232v1.12h-1.568v-10.388h1.568v4.241
				C307.732,516.776,308.539,516.306,309.538,516.306z M307.088,520.155c0,0.709,0.215,1.29,0.644,1.743
				c0.429,0.452,0.952,0.679,1.568,0.679c0.616,0,1.152-0.224,1.61-0.672c0.457-0.448,0.686-1.029,0.686-1.743
				s-0.224-1.307-0.672-1.778c-0.448-0.471-0.984-0.707-1.61-0.707s-1.153,0.236-1.582,0.707
				C307.303,518.855,307.088,519.446,307.088,520.155z"/>
			<path d="M316.524,523.865h-1.568v-10.388h1.568V523.865z"/>
			<path d="M318.89,514.934c-0.196-0.196-0.294-0.43-0.294-0.7s0.098-0.504,0.294-0.7c0.196-0.196,0.429-0.294,0.7-0.294
				c0.271,0,0.504,0.098,0.7,0.294c0.196,0.196,0.294,0.43,0.294,0.7s-0.098,0.504-0.294,0.7c-0.196,0.195-0.429,0.294-0.7,0.294
				C319.319,515.228,319.086,515.129,318.89,514.934z M320.36,523.865h-1.568v-7.448h1.568V523.865z"/>
			<path d="M324.196,519.833v4.032h-1.568v-7.448h1.568v1.358c0.252-0.457,0.6-0.816,1.043-1.078
				c0.442-0.261,0.921-0.392,1.435-0.392c0.84,0,1.52,0.257,2.037,0.77c0.518,0.514,0.777,1.256,0.777,2.226v4.564h-1.568v-4.088
				c0-1.372-0.569-2.059-1.708-2.059c-0.541,0-1.013,0.181-1.413,0.539C324.396,518.617,324.196,519.143,324.196,519.833z"/>
			<path d="M332.246,522.913c-0.7-0.709-1.05-1.643-1.05-2.8s0.358-2.081,1.077-2.772c0.719-0.69,1.576-1.035,2.57-1.035
				c0.993,0,1.793,0.42,2.4,1.26v-4.088h1.568v10.388h-1.568v-1.12c-0.579,0.821-1.424,1.232-2.534,1.232
				C333.768,523.978,332.946,523.623,332.246,522.913z M332.764,520.176c0,0.715,0.229,1.296,0.687,1.743
				c0.457,0.448,0.993,0.672,1.61,0.672c0.615,0,1.139-0.226,1.567-0.679c0.429-0.452,0.644-1.033,0.644-1.743
				c0-0.709-0.215-1.302-0.644-1.777c-0.429-0.477-0.956-0.715-1.582-0.715c-0.625,0-1.161,0.238-1.61,0.715
				C332.988,518.867,332.764,519.462,332.764,520.176z"/>
			<path d="M346.848,515.801v0.616h1.961v1.26h-1.961v6.188h-1.567v-6.188h-0.938v-1.26h0.938v-0.574
				c0-0.783,0.235-1.406,0.707-1.868s1.04-0.693,1.708-0.693c0.667,0,1.275,0.247,1.827,0.742l-0.644,1.105
				c-0.309-0.326-0.631-0.489-0.967-0.489s-0.598,0.104-0.783,0.314C346.941,515.164,346.848,515.446,346.848,515.801z"/>
			<path d="M357.25,520.827h-5.838c0.037,0.541,0.285,0.978,0.742,1.31c0.457,0.331,0.98,0.496,1.568,0.496
				c0.933,0,1.643-0.294,2.127-0.882l0.896,0.98c-0.803,0.831-1.848,1.246-3.137,1.246c-1.045,0-1.934-0.348-2.666-1.043
				s-1.1-1.629-1.1-2.801c0-1.171,0.373-2.102,1.12-2.793c0.747-0.69,1.626-1.035,2.64-1.035c1.012,0,1.873,0.306,2.582,0.917
				s1.064,1.453,1.064,2.526V520.827z M351.412,519.596h4.27c0-0.626-0.195-1.106-0.588-1.442c-0.392-0.336-0.875-0.504-1.449-0.504
				s-1.09,0.175-1.547,0.524C351.641,518.524,351.412,518.998,351.412,519.596z"/>
			<path d="M360.54,519.833v4.032h-1.568v-7.448h1.568v1.358c0.224-0.457,0.562-0.816,1.015-1.078
				c0.453-0.261,0.94-0.392,1.463-0.392c1.176,0,1.975,0.485,2.395,1.456c0.736-0.971,1.656-1.456,2.758-1.456
				c0.84,0,1.52,0.257,2.037,0.77c0.518,0.514,0.777,1.256,0.777,2.226v4.564h-1.568v-4.088c0-1.372-0.569-2.059-1.708-2.059
				c-0.532,0-0.997,0.171-1.394,0.512s-0.604,0.838-0.623,1.491v4.144h-1.567v-4.088c0-0.709-0.126-1.229-0.378-1.562
				c-0.252-0.331-0.648-0.497-1.19-0.497c-0.541,0-1.013,0.181-1.413,0.539C360.74,518.617,360.54,519.143,360.54,519.833z"/>
			<path d="M379.201,523.865h-1.428v-0.994c-0.615,0.737-1.441,1.106-2.479,1.106c-0.773,0-1.416-0.22-1.924-0.658
				c-0.51-0.438-0.764-1.024-0.764-1.757s0.271-1.281,0.813-1.646c0.541-0.363,1.273-0.546,2.197-0.546h2.031v-0.28
				c0-0.989-0.551-1.483-1.652-1.483c-0.691,0-1.41,0.252-2.156,0.756l-0.7-0.98c0.905-0.718,1.933-1.077,3.079-1.077
				c0.879,0,1.594,0.222,2.15,0.665c0.555,0.443,0.832,1.141,0.832,2.093V523.865z M377.633,521.093v-0.63h-1.764
				c-1.129,0-1.693,0.355-1.693,1.064c0,0.364,0.141,0.642,0.42,0.833s0.67,0.287,1.17,0.287c0.498,0,0.936-0.141,1.309-0.42
				C377.447,521.947,377.633,521.569,377.633,521.093z"/>
			<path d="M382.953,523.865h-1.568v-10.388h1.568V523.865z"/>
			<path d="M392.152,520.827h-5.84c0.039,0.541,0.285,0.978,0.742,1.31c0.457,0.331,0.98,0.496,1.568,0.496
				c0.934,0,1.643-0.294,2.129-0.882l0.895,0.98c-0.803,0.831-1.848,1.246-3.135,1.246c-1.045,0-1.936-0.348-2.668-1.043
				s-1.098-1.629-1.098-2.801c0-1.171,0.373-2.102,1.119-2.793c0.746-0.69,1.627-1.035,2.639-1.035c1.014,0,1.875,0.306,2.584,0.917
				s1.064,1.453,1.064,2.526V520.827z M386.313,519.596h4.271c0-0.626-0.197-1.106-0.588-1.442
				c-0.393-0.336-0.875-0.504-1.449-0.504s-1.09,0.175-1.547,0.524C386.543,518.524,386.313,518.998,386.313,519.596z"/>
			<path d="M91.529,581.279h1.652v9.786h-1.792l-5.544-7.14v7.14h-1.652v-9.786h1.652l5.684,7.309V581.279z"/>
			<path d="M101.903,590.064c-0.747,0.742-1.68,1.113-2.8,1.113s-2.053-0.371-2.8-1.113c-0.747-0.742-1.12-1.649-1.12-2.723
				s0.373-1.981,1.12-2.724c0.747-0.742,1.68-1.112,2.8-1.112s2.053,0.37,2.8,1.112s1.12,1.65,1.12,2.724
				S102.649,589.322,101.903,590.064z M97.416,589.099c0.443,0.452,1.006,0.679,1.687,0.679s1.244-0.227,1.687-0.679
				c0.443-0.453,0.665-1.038,0.665-1.757s-0.222-1.305-0.665-1.758c-0.443-0.452-1.006-0.679-1.687-0.679s-1.244,0.227-1.687,0.679
				c-0.443,0.453-0.665,1.039-0.665,1.758S96.973,588.646,97.416,589.099z"/>
			<path d="M108.707,585.088c-0.775,0-1.358,0.252-1.75,0.756s-0.588,1.181-0.588,2.029v3.192h-1.568v-7.448h1.568v1.498
				c0.252-0.467,0.595-0.849,1.029-1.147s0.894-0.453,1.379-0.462l0.014,1.582C108.763,585.088,108.735,585.088,108.707,585.088z"/>
			<path d="M111.927,587.033v4.032h-1.568v-7.448h1.568v1.358c0.224-0.457,0.562-0.816,1.015-1.078
				c0.453-0.261,0.94-0.392,1.463-0.392c1.176,0,1.974,0.485,2.394,1.456c0.737-0.971,1.656-1.456,2.758-1.456
				c0.84,0,1.519,0.257,2.037,0.77c0.518,0.514,0.777,1.256,0.777,2.226v4.564h-1.568v-4.088c0-1.372-0.569-2.059-1.708-2.059
				c-0.532,0-0.997,0.171-1.393,0.512c-0.397,0.341-0.604,0.838-0.623,1.491v4.144h-1.568v-4.088c0-0.709-0.126-1.229-0.378-1.562
				c-0.252-0.331-0.649-0.497-1.19-0.497c-0.541,0-1.013,0.181-1.414,0.539C112.127,585.817,111.927,586.343,111.927,587.033z"/>
			<path d="M130.588,591.065h-1.428v-0.994c-0.616,0.737-1.442,1.106-2.478,1.106c-0.775,0-1.417-0.22-1.925-0.658
				s-0.763-1.024-0.763-1.757s0.271-1.281,0.812-1.646c0.541-0.363,1.274-0.546,2.198-0.546h2.03v-0.28
				c0-0.989-0.551-1.483-1.652-1.483c-0.691,0-1.409,0.252-2.156,0.756l-0.7-0.98c0.905-0.718,1.932-1.077,3.08-1.077
				c0.877,0,1.594,0.222,2.149,0.665s0.833,1.141,0.833,2.093V591.065z M129.021,588.293v-0.63h-1.764
				c-1.129,0-1.694,0.355-1.694,1.064c0,0.364,0.14,0.642,0.42,0.833s0.669,0.287,1.169,0.287c0.499,0,0.936-0.141,1.309-0.42
				C128.833,589.147,129.021,588.77,129.021,588.293z"/>
			<path d="M134.34,591.065h-1.568v-10.388h1.568V591.065z"/>
			<path d="M143.748,591.178c-1.036,0-1.927-0.353-2.674-1.058c-0.747-0.704-1.12-1.626-1.12-2.765s0.39-2.065,1.169-2.779
				s1.729-1.07,2.849-1.07s2.067,0.387,2.842,1.161l-0.924,1.135c-0.644-0.561-1.293-0.84-1.946-0.84s-1.22,0.217-1.701,0.65
				c-0.481,0.435-0.721,0.994-0.721,1.68c0,0.687,0.238,1.268,0.714,1.743c0.476,0.477,1.062,0.714,1.757,0.714
				s1.351-0.316,1.967-0.951l0.924,1.008C145.979,590.721,144.933,591.178,143.748,591.178z"/>
			<path d="M154.584,590.064c-0.747,0.742-1.68,1.113-2.8,1.113s-2.053-0.371-2.8-1.113c-0.747-0.742-1.12-1.649-1.12-2.723
				s0.373-1.981,1.12-2.724c0.747-0.742,1.68-1.112,2.8-1.112s2.053,0.37,2.8,1.112s1.12,1.65,1.12,2.724
				S155.331,589.322,154.584,590.064z M150.097,589.099c0.443,0.452,1.006,0.679,1.687,0.679s1.244-0.227,1.687-0.679
				c0.443-0.453,0.665-1.038,0.665-1.757s-0.222-1.305-0.665-1.758c-0.443-0.452-1.006-0.679-1.687-0.679s-1.244,0.227-1.687,0.679
				c-0.443,0.453-0.665,1.039-0.665,1.758S149.654,588.646,150.097,589.099z"/>
			<path d="M159.05,591.065h-1.568v-10.388h1.568V591.065z"/>
			<path d="M167.548,590.064c-0.747,0.742-1.68,1.113-2.8,1.113s-2.053-0.371-2.8-1.113c-0.747-0.742-1.12-1.649-1.12-2.723
				s0.373-1.981,1.12-2.724c0.747-0.742,1.68-1.112,2.8-1.112s2.053,0.37,2.8,1.112s1.12,1.65,1.12,2.724
				S168.294,589.322,167.548,590.064z M163.061,589.099c0.443,0.452,1.006,0.679,1.687,0.679s1.244-0.227,1.687-0.679
				c0.443-0.453,0.665-1.038,0.665-1.757s-0.222-1.305-0.665-1.758c-0.443-0.452-1.006-0.679-1.687-0.679s-1.244,0.227-1.687,0.679
				c-0.443,0.453-0.665,1.039-0.665,1.758S162.618,588.646,163.061,589.099z"/>
			<path d="M174.352,585.088c-0.775,0-1.358,0.252-1.75,0.756s-0.588,1.181-0.588,2.029v3.192h-1.568v-7.448h1.568v1.498
				c0.252-0.467,0.595-0.849,1.029-1.147s0.894-0.453,1.379-0.462l0.014,1.582C174.408,585.088,174.38,585.088,174.352,585.088z"/>
			<path d="M271.529,581.279h1.652v9.786h-1.792l-5.544-7.14v7.14h-1.652v-9.786h1.652l5.684,7.309V581.279z"/>
			<path d="M281.903,590.064c-0.747,0.742-1.68,1.113-2.8,1.113s-2.053-0.371-2.8-1.113c-0.747-0.742-1.12-1.649-1.12-2.723
				s0.373-1.981,1.12-2.724c0.747-0.742,1.68-1.112,2.8-1.112s2.053,0.37,2.8,1.112s1.12,1.65,1.12,2.724
				S282.649,589.322,281.903,590.064z M277.416,589.099c0.443,0.452,1.006,0.679,1.687,0.679s1.244-0.227,1.687-0.679
				c0.443-0.453,0.665-1.038,0.665-1.757s-0.222-1.305-0.665-1.758c-0.443-0.452-1.006-0.679-1.687-0.679s-1.244,0.227-1.687,0.679
				c-0.443,0.453-0.665,1.039-0.665,1.758S276.973,588.646,277.416,589.099z"/>
			<path d="M288.707,585.088c-0.775,0-1.358,0.252-1.75,0.756s-0.588,1.181-0.588,2.029v3.192h-1.568v-7.448h1.568v1.498
				c0.252-0.467,0.595-0.849,1.029-1.147s0.894-0.453,1.379-0.462l0.014,1.582C288.763,585.088,288.735,585.088,288.707,585.088z"/>
			<path d="M291.927,587.033v4.032h-1.568v-7.448h1.568v1.358c0.224-0.457,0.562-0.816,1.015-1.078
				c0.453-0.261,0.94-0.392,1.463-0.392c1.176,0,1.974,0.485,2.394,1.456c0.737-0.971,1.656-1.456,2.758-1.456
				c0.84,0,1.519,0.257,2.037,0.77c0.518,0.514,0.777,1.256,0.777,2.226v4.564h-1.568v-4.088c0-1.372-0.569-2.059-1.708-2.059
				c-0.532,0-0.997,0.171-1.393,0.512c-0.397,0.341-0.604,0.838-0.623,1.491v4.144h-1.568v-4.088c0-0.709-0.126-1.229-0.378-1.562
				c-0.252-0.331-0.649-0.497-1.19-0.497c-0.541,0-1.013,0.181-1.414,0.539C292.127,585.817,291.927,586.343,291.927,587.033z"/>
			<path d="M310.588,591.065h-1.428v-0.994c-0.616,0.737-1.442,1.106-2.478,1.106c-0.775,0-1.417-0.22-1.925-0.658
				s-0.763-1.024-0.763-1.757s0.271-1.281,0.812-1.646c0.541-0.363,1.274-0.546,2.198-0.546h2.03v-0.28
				c0-0.989-0.551-1.483-1.652-1.483c-0.691,0-1.409,0.252-2.156,0.756l-0.7-0.98c0.905-0.718,1.932-1.077,3.08-1.077
				c0.877,0,1.594,0.222,2.149,0.665s0.833,1.141,0.833,2.093V591.065z M309.021,588.293v-0.63h-1.764
				c-1.129,0-1.694,0.355-1.694,1.064c0,0.364,0.14,0.642,0.42,0.833s0.669,0.287,1.169,0.287c0.499,0,0.936-0.141,1.309-0.42
				C308.833,589.147,309.021,588.77,309.021,588.293z"/>
			<path d="M314.34,591.065h-1.568v-10.388h1.568V591.065z"/>
			<path d="M323.748,591.178c-1.036,0-1.928-0.353-2.674-1.058c-0.747-0.704-1.12-1.626-1.12-2.765s0.39-2.065,1.169-2.779
				s1.729-1.07,2.85-1.07c1.119,0,2.066,0.387,2.842,1.161l-0.924,1.135c-0.645-0.561-1.293-0.84-1.947-0.84
				c-0.652,0-1.22,0.217-1.7,0.65c-0.481,0.435-0.722,0.994-0.722,1.68c0,0.687,0.238,1.268,0.715,1.743
				c0.476,0.477,1.062,0.714,1.757,0.714s1.351-0.316,1.967-0.951l0.925,1.008C325.979,590.721,324.934,591.178,323.748,591.178z"/>
			<path d="M334.584,590.064c-0.746,0.742-1.68,1.113-2.8,1.113s-2.054-0.371-2.8-1.113c-0.747-0.742-1.12-1.649-1.12-2.723
				s0.373-1.981,1.12-2.724c0.746-0.742,1.68-1.112,2.8-1.112s2.054,0.37,2.8,1.112s1.12,1.65,1.12,2.724
				S335.33,589.322,334.584,590.064z M330.098,589.099c0.443,0.452,1.006,0.679,1.687,0.679s1.243-0.227,1.687-0.679
				c0.443-0.453,0.666-1.038,0.666-1.757s-0.223-1.305-0.666-1.758c-0.443-0.452-1.006-0.679-1.687-0.679s-1.243,0.227-1.687,0.679
				c-0.443,0.453-0.666,1.039-0.666,1.758S329.654,588.646,330.098,589.099z"/>
			<path d="M339.051,591.065h-1.568v-10.388h1.568V591.065z"/>
			<path d="M347.548,590.064c-0.747,0.742-1.68,1.113-2.8,1.113s-2.053-0.371-2.8-1.113s-1.12-1.649-1.12-2.723
				s0.373-1.981,1.12-2.724s1.68-1.112,2.8-1.112s2.053,0.37,2.8,1.112s1.12,1.65,1.12,2.724S348.295,589.322,347.548,590.064z
				 M343.061,589.099c0.443,0.452,1.006,0.679,1.688,0.679s1.244-0.227,1.688-0.679c0.443-0.453,0.664-1.038,0.664-1.757
				s-0.221-1.305-0.664-1.758c-0.443-0.452-1.006-0.679-1.688-0.679s-1.244,0.227-1.688,0.679c-0.443,0.453-0.664,1.039-0.664,1.758
				S342.617,588.646,343.061,589.099z"/>
			<path d="M354.352,585.088c-0.774,0-1.357,0.252-1.75,0.756c-0.392,0.504-0.588,1.181-0.588,2.029v3.192h-1.568v-7.448h1.568
				v1.498c0.252-0.467,0.596-0.849,1.029-1.147s0.894-0.453,1.379-0.462l0.014,1.582
				C354.408,585.088,354.38,585.088,354.352,585.088z"/>
			<path d="M361.813,591.065l-2.996-7.448h1.624l2.268,5.628l2.269-5.628h1.624l-2.996,7.448H361.813z"/>
			<path d="M367.945,582.134c-0.195-0.196-0.294-0.43-0.294-0.7s0.099-0.504,0.294-0.7c0.196-0.196,0.43-0.294,0.7-0.294
				s0.504,0.098,0.7,0.294c0.195,0.196,0.293,0.43,0.293,0.7s-0.098,0.504-0.293,0.7c-0.196,0.195-0.43,0.294-0.7,0.294
				S368.142,582.329,367.945,582.134z M369.416,591.065h-1.568v-7.448h1.568V591.065z"/>
			<path d="M376.99,588.84c0,0.709-0.258,1.276-0.771,1.7c-0.514,0.425-1.17,0.638-1.973,0.638c-0.543,0-1.104-0.099-1.688-0.294
				c-0.584-0.196-1.1-0.472-1.547-0.826l0.756-1.218c0.867,0.653,1.707,0.979,2.52,0.979c0.355,0,0.635-0.081,0.84-0.245
				c0.205-0.163,0.309-0.371,0.309-0.623c0-0.373-0.494-0.709-1.484-1.008c-0.074-0.028-0.131-0.047-0.168-0.056
				c-1.549-0.42-2.324-1.12-2.324-2.101c0-0.69,0.269-1.243,0.805-1.658c0.537-0.416,1.234-0.623,2.094-0.623
				s1.67,0.252,2.436,0.756l-0.588,1.162c-0.607-0.401-1.264-0.603-1.975-0.603c-0.373,0-0.676,0.068-0.908,0.203
				c-0.234,0.136-0.352,0.339-0.352,0.609c0,0.242,0.121,0.42,0.365,0.531c0.168,0.084,0.402,0.164,0.707,0.238
				c0.303,0.075,0.57,0.149,0.805,0.224c0.232,0.075,0.459,0.159,0.678,0.253c0.221,0.093,0.455,0.224,0.707,0.392
				C376.738,587.607,376.99,588.13,376.99,588.84z"/>
			<path d="M378.865,582.134c-0.195-0.196-0.293-0.43-0.293-0.7s0.098-0.504,0.293-0.7s0.43-0.294,0.699-0.294
				c0.271,0,0.504,0.098,0.701,0.294c0.195,0.196,0.293,0.43,0.293,0.7s-0.098,0.504-0.293,0.7c-0.197,0.195-0.43,0.294-0.701,0.294
				C379.295,582.428,379.061,582.329,378.865,582.134z M380.336,591.065h-1.568v-7.448h1.568V591.065z"/>
			<path d="M388.834,590.064c-0.748,0.742-1.682,1.113-2.801,1.113s-2.053-0.371-2.801-1.113c-0.746-0.742-1.119-1.649-1.119-2.723
				s0.373-1.981,1.119-2.724c0.748-0.742,1.682-1.112,2.801-1.112s2.053,0.37,2.801,1.112c0.746,0.742,1.119,1.65,1.119,2.724
				S389.58,589.322,388.834,590.064z M384.346,589.099c0.443,0.452,1.006,0.679,1.688,0.679s1.244-0.227,1.688-0.679
				c0.443-0.453,0.664-1.038,0.664-1.757s-0.221-1.305-0.664-1.758c-0.443-0.452-1.006-0.679-1.688-0.679s-1.244,0.227-1.688,0.679
				c-0.443,0.453-0.664,1.039-0.664,1.758S383.902,588.646,384.346,589.099z"/>
			<path d="M393.299,587.033v4.032h-1.568v-7.448h1.568v1.358c0.252-0.457,0.6-0.816,1.043-1.078
				c0.443-0.261,0.922-0.392,1.436-0.392c0.84,0,1.52,0.257,2.037,0.77c0.518,0.514,0.777,1.256,0.777,2.226v4.564h-1.568v-4.088
				c0-1.372-0.57-2.059-1.709-2.059c-0.541,0-1.012,0.181-1.414,0.539C393.5,585.817,393.299,586.343,393.299,587.033z"/>
			<path d="M85.943,607.865l-2.996-7.448h1.624l2.268,5.628l2.268-5.628h1.624l-2.996,7.448H85.943z"/>
			<path d="M92.075,598.934c-0.196-0.196-0.294-0.43-0.294-0.7s0.098-0.504,0.294-0.7c0.196-0.196,0.429-0.294,0.7-0.294
				c0.271,0,0.504,0.098,0.7,0.294c0.196,0.196,0.294,0.43,0.294,0.7s-0.098,0.504-0.294,0.7c-0.196,0.195-0.429,0.294-0.7,0.294
				C92.504,599.228,92.271,599.129,92.075,598.934z M93.545,607.865h-1.568v-7.448h1.568V607.865z"/>
			<path d="M101.119,605.64c0,0.709-0.257,1.276-0.77,1.7c-0.513,0.425-1.171,0.638-1.974,0.638c-0.541,0-1.104-0.099-1.687-0.294
				c-0.583-0.196-1.099-0.472-1.547-0.826l0.756-1.218c0.868,0.653,1.708,0.979,2.52,0.979c0.355,0,0.635-0.081,0.84-0.245
				c0.205-0.163,0.308-0.371,0.308-0.623c0-0.373-0.495-0.709-1.484-1.008c-0.075-0.028-0.131-0.047-0.168-0.056
				c-1.549-0.42-2.324-1.12-2.324-2.101c0-0.69,0.268-1.243,0.805-1.658c0.537-0.416,1.234-0.623,2.093-0.623
				c0.858,0,1.67,0.252,2.436,0.756l-0.588,1.162c-0.606-0.401-1.265-0.603-1.974-0.603c-0.374,0-0.677,0.068-0.91,0.203
				c-0.233,0.136-0.35,0.339-0.35,0.609c0,0.242,0.121,0.42,0.364,0.531c0.168,0.084,0.403,0.164,0.707,0.238
				c0.303,0.075,0.571,0.149,0.805,0.224c0.233,0.075,0.46,0.159,0.679,0.253c0.219,0.093,0.455,0.224,0.707,0.392
				C100.867,604.407,101.119,604.93,101.119,605.64z"/>
			<path d="M102.995,598.934c-0.196-0.196-0.294-0.43-0.294-0.7s0.098-0.504,0.294-0.7c0.196-0.196,0.429-0.294,0.7-0.294
				c0.271,0,0.504,0.098,0.7,0.294c0.196,0.196,0.294,0.43,0.294,0.7s-0.098,0.504-0.294,0.7c-0.196,0.195-0.429,0.294-0.7,0.294
				C103.424,599.228,103.191,599.129,102.995,598.934z M104.465,607.865h-1.568v-7.448h1.568V607.865z"/>
			<path d="M112.962,606.864c-0.747,0.742-1.68,1.113-2.8,1.113s-2.053-0.371-2.8-1.113c-0.747-0.742-1.12-1.649-1.12-2.723
				s0.373-1.981,1.12-2.724c0.747-0.742,1.68-1.112,2.8-1.112s2.053,0.37,2.8,1.112s1.12,1.65,1.12,2.724
				S113.709,606.122,112.962,606.864z M108.476,605.898c0.443,0.452,1.006,0.679,1.687,0.679s1.244-0.227,1.687-0.679
				c0.443-0.453,0.665-1.038,0.665-1.757s-0.222-1.305-0.665-1.758c-0.443-0.452-1.006-0.679-1.687-0.679s-1.244,0.227-1.687,0.679
				c-0.443,0.453-0.665,1.039-0.665,1.758S108.032,605.445,108.476,605.898z"/>
			<path d="M117.429,603.833v4.032h-1.568v-7.448h1.568v1.358c0.252-0.457,0.6-0.816,1.043-1.078
				c0.443-0.261,0.921-0.392,1.435-0.392c0.84,0,1.519,0.257,2.037,0.77c0.518,0.514,0.777,1.256,0.777,2.226v4.564h-1.568v-4.088
				c0-1.372-0.569-2.059-1.708-2.059c-0.541,0-1.013,0.181-1.414,0.539C117.629,602.617,117.429,603.143,117.429,603.833z"/>
			<path d="M130.309,603.833v4.032h-1.568v-7.448h1.568v1.358c0.224-0.457,0.562-0.816,1.015-1.078
				c0.453-0.261,0.94-0.392,1.463-0.392c1.176,0,1.974,0.485,2.394,1.456c0.737-0.971,1.656-1.456,2.758-1.456
				c0.84,0,1.519,0.257,2.037,0.77c0.518,0.514,0.777,1.256,0.777,2.226v4.564h-1.568v-4.088c0-1.372-0.569-2.059-1.708-2.059
				c-0.532,0-0.997,0.171-1.393,0.512c-0.397,0.341-0.604,0.838-0.623,1.491v4.144h-1.568v-4.088c0-0.709-0.126-1.229-0.378-1.562
				c-0.252-0.331-0.649-0.497-1.19-0.497c-0.541,0-1.013,0.181-1.414,0.539C130.509,602.617,130.309,603.143,130.309,603.833z"/>
			<path d="M148.97,607.865h-1.428v-0.994c-0.616,0.737-1.442,1.106-2.478,1.106c-0.775,0-1.417-0.22-1.925-0.658
				s-0.763-1.024-0.763-1.757s0.271-1.281,0.812-1.646c0.541-0.363,1.274-0.546,2.198-0.546h2.03v-0.28
				c0-0.989-0.551-1.483-1.652-1.483c-0.691,0-1.409,0.252-2.156,0.756l-0.7-0.98c0.905-0.718,1.932-1.077,3.08-1.077
				c0.877,0,1.594,0.222,2.149,0.665s0.833,1.141,0.833,2.093V607.865z M147.402,605.093v-0.63h-1.764
				c-1.129,0-1.694,0.355-1.694,1.064c0,0.364,0.14,0.642,0.42,0.833s0.669,0.287,1.169,0.287c0.499,0,0.936-0.141,1.309-0.42
				C147.215,605.947,147.402,605.569,147.402,605.093z"/>
			<path d="M152.722,607.865h-1.568v-10.388h1.568V607.865z"/>
			<path d="M161.92,604.827h-5.838c0.037,0.541,0.285,0.978,0.742,1.31c0.458,0.331,0.98,0.496,1.568,0.496
				c0.933,0,1.643-0.294,2.128-0.882l0.896,0.98c-0.803,0.831-1.848,1.246-3.136,1.246c-1.045,0-1.934-0.348-2.667-1.043
				c-0.732-0.695-1.099-1.629-1.099-2.801c0-1.171,0.373-2.102,1.12-2.793c0.747-0.69,1.626-1.035,2.639-1.035
				s1.874,0.306,2.583,0.917c0.709,0.611,1.064,1.453,1.064,2.526V604.827z M156.082,603.596h4.27c0-0.626-0.196-1.106-0.588-1.442
				c-0.392-0.336-0.875-0.504-1.449-0.504s-1.09,0.175-1.547,0.524C156.311,602.524,156.082,602.998,156.082,603.596z"/>
			<path d="M265.901,599.801v0.616h1.96v1.26h-1.96v6.188h-1.568v-6.188h-0.938v-1.26h0.938v-0.574c0-0.783,0.235-1.406,0.707-1.868
				c0.471-0.462,1.041-0.693,1.708-0.693c0.667,0,1.276,0.247,1.827,0.742l-0.644,1.105c-0.308-0.326-0.63-0.489-0.966-0.489
				s-0.597,0.104-0.784,0.314C265.994,599.164,265.901,599.446,265.901,599.801z"/>
			<path d="M276.303,604.827h-5.838c0.037,0.541,0.285,0.978,0.742,1.31c0.458,0.331,0.98,0.496,1.568,0.496
				c0.933,0,1.643-0.294,2.128-0.882l0.896,0.98c-0.803,0.831-1.848,1.246-3.136,1.246c-1.045,0-1.934-0.348-2.667-1.043
				c-0.732-0.695-1.099-1.629-1.099-2.801c0-1.171,0.373-2.102,1.12-2.793c0.747-0.69,1.626-1.035,2.639-1.035
				s1.874,0.306,2.583,0.917c0.709,0.611,1.064,1.453,1.064,2.526V604.827z M270.465,603.596h4.27c0-0.626-0.196-1.106-0.588-1.442
				c-0.392-0.336-0.875-0.504-1.449-0.504s-1.09,0.175-1.547,0.524C270.693,602.524,270.465,602.998,270.465,603.596z"/>
			<path d="M279.593,603.833v4.032h-1.568v-7.448h1.568v1.358c0.224-0.457,0.562-0.816,1.015-1.078
				c0.453-0.261,0.94-0.392,1.463-0.392c1.176,0,1.974,0.485,2.394,1.456c0.737-0.971,1.656-1.456,2.758-1.456
				c0.84,0,1.519,0.257,2.037,0.77c0.518,0.514,0.777,1.256,0.777,2.226v4.564h-1.568v-4.088c0-1.372-0.569-2.059-1.708-2.059
				c-0.532,0-0.997,0.171-1.393,0.512c-0.397,0.341-0.604,0.838-0.623,1.491v4.144h-1.568v-4.088c0-0.709-0.126-1.229-0.378-1.562
				c-0.252-0.331-0.649-0.497-1.19-0.497c-0.541,0-1.013,0.181-1.414,0.539C279.793,602.617,279.593,603.143,279.593,603.833z"/>
			<path d="M298.254,607.865h-1.428v-0.994c-0.616,0.737-1.442,1.106-2.478,1.106c-0.775,0-1.417-0.22-1.925-0.658
				s-0.763-1.024-0.763-1.757s0.271-1.281,0.812-1.646c0.541-0.363,1.274-0.546,2.198-0.546h2.03v-0.28
				c0-0.989-0.551-1.483-1.652-1.483c-0.691,0-1.409,0.252-2.156,0.756l-0.7-0.98c0.905-0.718,1.932-1.077,3.08-1.077
				c0.877,0,1.594,0.222,2.149,0.665s0.833,1.141,0.833,2.093V607.865z M296.687,605.093v-0.63h-1.764
				c-1.129,0-1.694,0.355-1.694,1.064c0,0.364,0.14,0.642,0.42,0.833s0.669,0.287,1.169,0.287c0.499,0,0.936-0.141,1.309-0.42
				C296.5,605.947,296.687,605.569,296.687,605.093z"/>
			<path d="M302.006,607.865h-1.568v-10.388h1.568V607.865z"/>
			<path d="M311.204,604.827h-5.838c0.037,0.541,0.285,0.978,0.742,1.31c0.458,0.331,0.98,0.496,1.568,0.496
				c0.933,0,1.643-0.294,2.128-0.882l0.896,0.98c-0.803,0.831-1.848,1.246-3.136,1.246c-1.045,0-1.934-0.348-2.667-1.043
				c-0.732-0.695-1.099-1.629-1.099-2.801c0-1.171,0.373-2.102,1.12-2.793c0.747-0.69,1.626-1.035,2.639-1.035
				s1.874,0.306,2.583,0.917c0.709,0.611,1.064,1.453,1.064,2.526V604.827z M305.366,603.596h4.27c0-0.626-0.196-1.106-0.588-1.442
				c-0.392-0.336-0.875-0.504-1.449-0.504s-1.09,0.175-1.547,0.524C305.595,602.524,305.366,602.998,305.366,603.596z"/>
		</g>
		<g>
			<path d="M25.358,448.565h1.652v4.774l4.48-4.774h2.1l-3.934,4.284l3.99,5.502h-1.96l-3.248-4.284l-1.428,1.54v2.744h-1.652
				V448.565z"/>
			<path d="M42.088,448.565v1.554h-5.222v2.591h4.69v1.47h-4.69v2.618h5.39v1.554h-7.042v-9.786H42.088z"/>
			<path d="M48.22,458.352h-1.68v-3.864l-3.64-5.922h1.806l2.674,4.452l2.674-4.452h1.806l-3.64,5.922V458.352z"/>
		</g>
	</g>
</g>
<g id="Ebene_2_Kopie">
	<rect x="57.5" y="16.5" fill="#FFFFFF" stroke="#000000" stroke-width="3" stroke-miterlimit="10" width="67" height="67"/>
	<rect x="20.5" y="175.5" fill="#FFFFFF" stroke="#000000" stroke-width="3" stroke-miterlimit="10" width="67" height="67"/>
	<rect x="405.5" y="175.5" fill="#FFFFFF" stroke="#000000" stroke-width="3" stroke-miterlimit="10" width="67" height="67"/>
	<rect x="247.5" y="333.5" fill="#FFC733" stroke="#000000" stroke-width="3" stroke-miterlimit="10" width="67" height="67"/>
	<rect x="405.5" y="333.5" fill="#FFC733" stroke="#000000" stroke-width="3" stroke-miterlimit="10" width="67" height="67"/>
	<rect x="133.5" y="175.5" fill="#FFC733" stroke="#000000" stroke-width="3" stroke-miterlimit="10" width="67" height="67"/>
	<circle fill="#FFFFFF" stroke="#000000" stroke-width="3" stroke-miterlimit="10" cx="248.486" cy="49.014" r="32.514"/>
	<circle fill="#FFFFFF" stroke="#000000" stroke-width="3" stroke-miterlimit="10" cx="281.486" cy="208.014" r="32.514"/>
	<g>
		<path d="M82.616,56.403l-4.128-6.312h-0.12l-4.128,6.312h-3.527l5.76-8.616l-5.353-8.16h3.505l3.743,5.664h0.12l3.744-5.664h3.504
			l-5.352,8.16l5.76,8.616H82.616z"/>
		<path d="M95.193,35.631h1.65v9.78h-1.791l-5.541-7.136v7.136h-1.65v-9.78h1.65l5.682,7.304V35.631z"/>
		<path d="M107.128,56.403h-2.88v-6.624l-6.24-10.152h3.097l4.584,7.632l4.584-7.632h3.096l-6.24,10.152V56.403z"/>
	</g>
	<g>
		<path d="M44.852,215.808l-4.128-6.312h-0.12l-4.128,6.312h-3.527l5.76-8.616l-5.353-8.16h3.505l3.743,5.664h0.12l3.744-5.664
			h3.504l-5.352,8.16l5.76,8.616H44.852z"/>
		<path d="M57.429,195.036h1.65v9.78h-1.791l-5.541-7.136v7.136h-1.65v-9.78h1.65l5.682,7.304V195.036z"/>
		<path d="M69.365,215.808h-2.88v-6.624l-6.24-10.152h3.097l4.584,7.632l4.584-7.632h3.096l-6.24,10.152V215.808z"/>
	</g>
	<g>
		<path d="M159.181,215.808l-4.128-6.312h-0.12l-4.128,6.312h-3.527l5.76-8.616l-5.353-8.16h3.505l3.743,5.664h0.12l3.744-5.664
			h3.504l-5.352,8.16l5.76,8.616H159.181z"/>
		<path d="M165.769,200.786v4.03h-1.566v-7.444h1.566v1.357c0.252-0.457,0.6-0.816,1.043-1.078c0.442-0.261,0.921-0.392,1.434-0.392
			c0.84,0,1.519,0.257,2.036,0.77c0.518,0.513,0.776,1.255,0.776,2.225v4.562h-1.567v-4.085c0-1.372-0.568-2.057-1.707-2.057
			c-0.541,0-1.012,0.18-1.413,0.539C165.97,199.571,165.769,200.096,165.769,200.786z"/>
		<path d="M181.036,215.808h-2.88v-6.624l-6.24-10.152h3.097l4.584,7.632l4.584-7.632h3.096l-6.24,10.152V215.808z"/>
	</g>
	<g>
		<path d="M267.231,215.808l-4.128-6.312h-0.12l-4.128,6.312h-3.527l5.76-8.616l-5.353-8.16h3.505l3.743,5.664h0.12l3.744-5.664
			h3.504l-5.352,8.16l5.76,8.616H267.231z"/>
		<path d="M279.808,195.036h1.65v9.78h-1.791l-5.541-7.136v7.136h-1.65v-9.78h1.65l5.682,7.304V195.036z"/>
		<path d="M295.08,215.808l-4.128-6.312h-0.12l-4.128,6.312h-3.527l5.76-8.616l-5.353-8.16h3.505l3.743,5.664h0.12l3.744-5.664
			h3.504l-5.352,8.16l5.76,8.616H295.08z"/>
		<path d="M301.667,200.786v4.03h-1.566v-7.444h1.566v1.357c0.252-0.457,0.6-0.816,1.043-1.078c0.442-0.261,0.921-0.392,1.434-0.392
			c0.84,0,1.519,0.257,2.036,0.77c0.518,0.513,0.776,1.255,0.776,2.225v4.562h-1.567v-4.085c0-1.372-0.568-2.057-1.707-2.057
			c-0.541,0-1.012,0.18-1.413,0.539C301.869,199.571,301.667,200.096,301.667,200.786z"/>
	</g>
	<g>
		<path d="M429.852,215.808l-4.127-6.312h-0.121l-4.127,6.312h-3.527l5.76-8.616l-5.354-8.16h3.506l3.742,5.664h0.121l3.744-5.664
			h3.504l-5.352,8.16l5.76,8.616H429.852z"/>
		<path d="M442.43,195.036h1.65v9.78h-1.791l-5.541-7.136v7.136h-1.65v-9.78h1.65l5.682,7.304V195.036z"/>
		<path d="M454.365,215.808h-2.881v-6.624l-6.24-10.152h3.098l4.584,7.632l4.584-7.632h3.096l-6.24,10.152V215.808z"/>
	</g>
	<g>
		<path d="M273.181,373.197l-4.128-6.313h-0.12l-4.128,6.313h-3.527l5.76-8.616l-5.353-8.159h3.505l3.743,5.664h0.12l3.744-5.664
			h3.504l-5.352,8.159l5.76,8.616H273.181z"/>
		<path d="M279.769,358.176v4.029h-1.566v-7.443h1.566v1.357c0.252-0.457,0.6-0.816,1.043-1.078c0.442-0.26,0.921-0.391,1.434-0.391
			c0.84,0,1.519,0.256,2.036,0.77c0.518,0.513,0.776,1.254,0.776,2.225v4.561h-1.567v-4.085c0-1.372-0.568-2.058-1.707-2.058
			c-0.541,0-1.012,0.18-1.413,0.539C279.97,356.961,279.769,357.486,279.769,358.176z"/>
		<path d="M295.036,373.197h-2.88v-6.624l-6.24-10.151h3.097l4.584,7.631l4.584-7.631h3.096l-6.24,10.151V373.197z"/>
	</g>
	<g>
		<path d="M431.18,373.197l-4.127-6.313h-0.121l-4.127,6.313h-3.527l5.76-8.616l-5.354-8.159h3.506l3.742,5.664h0.121l3.744-5.664
			h3.504l-5.352,8.159l5.76,8.616H431.18z"/>
		<path d="M437.768,358.176v4.029h-1.566v-7.443h1.566v1.357c0.252-0.457,0.6-0.816,1.043-1.078c0.443-0.26,0.922-0.391,1.434-0.391
			c0.84,0,1.52,0.256,2.037,0.77c0.518,0.513,0.775,1.254,0.775,2.225v4.561h-1.566v-4.085c0-1.372-0.568-2.058-1.707-2.058
			c-0.541,0-1.012,0.18-1.414,0.539C437.969,356.961,437.768,357.486,437.768,358.176z"/>
		<path d="M453.035,373.197h-2.881v-6.624l-6.24-10.151h3.098l4.584,7.631l4.584-7.631h3.096l-6.24,10.151V373.197z"/>
	</g>
	<g>
		<path d="M234.716,56.403l-4.128-6.312h-0.12l-4.128,6.312h-3.527l5.76-8.616l-5.353-8.16h3.505l3.743,5.664h0.12l3.744-5.664
			h3.504l-5.352,8.16l5.76,8.616H234.716z"/>
		<path d="M247.293,35.631h1.65v9.78h-1.791l-5.541-7.136v7.136h-1.65v-9.78h1.65l5.682,7.304V35.631z"/>
		<path d="M262.565,56.403l-4.128-6.312h-0.12l-4.128,6.312h-3.527l5.76-8.616l-5.353-8.16h3.505l3.743,5.664h0.12l3.744-5.664
			h3.504l-5.352,8.16l5.76,8.616H262.565z"/>
		<path d="M269.153,41.382v4.03h-1.566v-7.444h1.566v1.357c0.252-0.457,0.6-0.816,1.043-1.078c0.442-0.261,0.921-0.392,1.434-0.392
			c0.84,0,1.519,0.257,2.036,0.77c0.518,0.513,0.776,1.255,0.776,2.225v4.562h-1.567v-4.085c0-1.372-0.568-2.057-1.707-2.057
			c-0.541,0-1.012,0.18-1.413,0.539C269.354,40.167,269.153,40.692,269.153,41.382z"/>
	</g>
	<line fill="none" stroke="#000000" stroke-width="3" stroke-miterlimit="10" x1="124" y1="49.5" x2="216" y2="49.5"/>
	<line fill="none" stroke="#000000" stroke-width="3" stroke-miterlimit="10" x1="54" y1="129.5" x2="282" y2="129.5"/>
	<line fill="none" stroke="#000000" stroke-width="3" stroke-miterlimit="10" x1="315" y1="208.5" x2="407" y2="208.5"/>
	<line fill="none" stroke="#000000" stroke-width="4" stroke-miterlimit="10" x1="281" y1="288" x2="439" y2="288"/>
	<line fill="none" stroke="#000000" stroke-width="3" stroke-miterlimit="10" x1="168.5" y1="50" x2="168.5" y2="176"/>
	<line fill="none" stroke="#000000" stroke-width="3" stroke-miterlimit="10" x1="360.5" y1="208" x2="360.5" y2="288"/>
	<line fill="none" stroke="#000000" stroke-width="3" stroke-miterlimit="10" x1="53.5" y1="128" x2="53.5" y2="176"/>
	<line fill="none" stroke="#000000" stroke-width="3" stroke-miterlimit="10" x1="280.5" y1="129" x2="280.5" y2="177"/>
	<line fill="none" stroke="#000000" stroke-width="3" stroke-miterlimit="10" x1="281.5" y1="286" x2="281.5" y2="334"/>
	<line fill="none" stroke="#000000" stroke-width="3" stroke-miterlimit="10" x1="438.5" y1="286" x2="438.5" y2="334"/>
</g>
</svg>
