# Blender v2.80 (sub 45) OBJ File: ''
# www.blender.org
mtllib lamp_1.mtl
o BezierCurve
v 0.000000 3.255118 0.000000
v 0.916438 3.255118 0.000000
v 1.294775 1.003549 0.000000
v 0.102859 1.003549 0.000000
v 0.102859 0.100000 0.000000
v 1.000000 0.100000 0.000000
v 1.000000 0.000000 0.000000
v 1.000000 0.000000 0.000000
v 0.000000 0.000000 0.000000
v 0.000000 3.255118 0.000000
v 0.916438 3.255118 0.000000
v 1.294775 1.003549 0.000000
v 0.102859 1.003549 0.000000
v 0.102859 0.100000 0.000000
v 1.000000 0.100000 0.000000
v 0.000000 3.255118 0.000000
v 0.846678 3.255118 -0.350705
v 1.196216 1.003549 -0.495489
v 0.095029 1.003549 -0.039362
v 0.095029 0.100000 -0.039362
v 0.923880 0.100000 -0.382683
v 0.923880 0.000000 -0.382683
v 0.923880 0.000000 -0.382683
v 0.000000 0.000000 0.000000
v 0.000000 3.255118 0.000000
v 0.846678 3.255118 -0.350705
v 1.196216 1.003549 -0.495489
v 0.095029 1.003549 -0.039362
v 0.095029 0.100000 -0.039362
v 0.923880 0.100000 -0.382683
v 0.000000 3.255118 0.000000
v 0.648020 3.255118 -0.648019
v 0.915544 1.003549 -0.915544
v 0.072732 1.003549 -0.072732
v 0.072732 0.100000 -0.072732
v 0.707107 0.100000 -0.707107
v 0.707107 0.000000 -0.707107
v 0.707107 0.000000 -0.707107
v 0.000000 0.000000 0.000000
v 0.000000 3.255118 0.000000
v 0.648020 3.255118 -0.648019
v 0.915544 1.003549 -0.915544
v 0.072732 1.003549 -0.072732
v 0.072732 0.100000 -0.072732
v 0.707107 0.100000 -0.707107
v 0.000000 3.255118 0.000000
v 0.350706 3.255118 -0.846678
v 0.495489 1.003549 -1.196216
v 0.039362 1.003549 -0.095029
v 0.039362 0.100000 -0.095029
v 0.382683 0.100000 -0.923880
v 0.382683 0.000000 -0.923880
v 0.382683 0.000000 -0.923880
v 0.000000 0.000000 0.000000
v 0.000000 3.255118 0.000000
v 0.350706 3.255118 -0.846678
v 0.495489 1.003549 -1.196216
v 0.039362 1.003549 -0.095029
v 0.039362 0.100000 -0.095029
v 0.382683 0.100000 -0.923880
v 0.000000 3.255118 -0.000000
v 0.000000 3.255118 -0.916438
v -0.000000 1.003549 -1.294775
v -0.000000 1.003549 -0.102859
v -0.000000 0.100000 -0.102859
v -0.000000 0.100000 -1.000000
v -0.000000 0.000000 -1.000000
v -0.000000 0.000000 -1.000000
v 0.000000 0.000000 0.000000
v 0.000000 3.255118 -0.000000
v 0.000000 3.255118 -0.916438
v -0.000000 1.003549 -1.294775
v -0.000000 1.003549 -0.102859
v -0.000000 0.100000 -0.102859
v -0.000000 0.100000 -1.000000
v 0.000000 3.255118 -0.000000
v -0.350705 3.255118 -0.846678
v -0.495489 1.003549 -1.196216
v -0.039362 1.003549 -0.095029
v -0.039362 0.100000 -0.095029
v -0.382684 0.100000 -0.923880
v -0.382684 0.000000 -0.923880
v -0.382684 0.000000 -0.923880
v 0.000000 0.000000 0.000000
v 0.000000 3.255118 -0.000000
v -0.350705 3.255118 -0.846678
v -0.495489 1.003549 -1.196216
v -0.039362 1.003549 -0.095029
v -0.039362 0.100000 -0.095029
v -0.382684 0.100000 -0.923880
v 0.000000 3.255118 -0.000000
v -0.648019 3.255118 -0.648020
v -0.915544 1.003549 -0.915544
v -0.072732 1.003549 -0.072732
v -0.072732 0.100000 -0.072732
v -0.707107 0.100000 -0.707107
v -0.707107 0.000000 -0.707107
v -0.707107 0.000000 -0.707107
v 0.000000 0.000000 0.000000
v 0.000000 3.255118 -0.000000
v -0.648019 3.255118 -0.648020
v -0.915544 1.003549 -0.915544
v -0.072732 1.003549 -0.072732
v -0.072732 0.100000 -0.072732
v -0.707107 0.100000 -0.707107
v 0.000000 3.255118 -0.000000
v -0.846678 3.255118 -0.350706
v -1.196216 1.003549 -0.495489
v -0.095029 1.003549 -0.039362
v -0.095029 0.100000 -0.039362
v -0.923880 0.100000 -0.382683
v -0.923880 0.000000 -0.382683
v -0.923880 0.000000 -0.382683
v 0.000000 0.000000 0.000000
v 0.000000 3.255118 -0.000000
v -0.846678 3.255118 -0.350706
v -1.196216 1.003549 -0.495489
v -0.095029 1.003549 -0.039362
v -0.095029 0.100000 -0.039362
v -0.923880 0.100000 -0.382683
v -0.000000 3.255118 -0.000000
v -0.916438 3.255118 -0.000000
v -1.294775 1.003549 0.000000
v -0.102859 1.003549 0.000000
v -0.102859 0.100000 0.000000
v -1.000000 0.100000 0.000000
v -1.000000 0.000000 0.000000
v -1.000000 0.000000 0.000000
v 0.000000 0.000000 0.000000
v -0.000000 3.255118 -0.000000
v -0.916438 3.255118 -0.000000
v -1.294775 1.003549 0.000000
v -0.102859 1.003549 0.000000
v -0.102859 0.100000 0.000000
v -1.000000 0.100000 0.000000
v -0.000000 3.255118 -0.000000
v -0.846678 3.255118 0.350705
v -1.196216 1.003549 0.495489
v -0.095029 1.003549 0.039362
v -0.095029 0.100000 0.039362
v -0.923880 0.100000 0.382683
v -0.923880 0.000000 0.382683
v -0.923880 0.000000 0.382683
v 0.000000 0.000000 0.000000
v -0.000000 3.255118 -0.000000
v -0.846678 3.255118 0.350705
v -1.196216 1.003549 0.495489
v -0.095029 1.003549 0.039362
v -0.095029 0.100000 0.039362
v -0.923880 0.100000 0.382683
v -0.000000 3.255118 -0.000000
v -0.648019 3.255118 0.648019
v -0.915544 1.003549 0.915544
v -0.072732 1.003549 0.072732
v -0.072732 0.100000 0.072732
v -0.707107 0.100000 0.707107
v -0.707107 0.000000 0.707107
v -0.707107 0.000000 0.707107
v 0.000000 0.000000 0.000000
v -0.000000 3.255118 -0.000000
v -0.648019 3.255118 0.648019
v -0.915544 1.003549 0.915544
v -0.072732 1.003549 0.072732
v -0.072732 0.100000 0.072732
v -0.707107 0.100000 0.707107
v -0.000000 3.255118 -0.000000
v -0.350706 3.255118 0.846678
v -0.495489 1.003549 1.196216
v -0.039362 1.003549 0.095029
v -0.039362 0.100000 0.095029
v -0.382683 0.100000 0.923880
v -0.382683 0.000000 0.923880
v -0.382683 0.000000 0.923880
v 0.000000 0.000000 0.000000
v -0.000000 3.255118 -0.000000
v -0.350706 3.255118 0.846678
v -0.495489 1.003549 1.196216
v -0.039362 1.003549 0.095029
v -0.039362 0.100000 0.095029
v -0.382683 0.100000 0.923880
v -0.000000 3.255118 0.000000
v -0.000000 3.255118 0.916438
v 0.000000 1.003549 1.294775
v 0.000000 1.003549 0.102859
v 0.000000 0.100000 0.102859
v 0.000000 0.100000 1.000000
v 0.000000 0.000000 1.000000
v 0.000000 0.000000 1.000000
v 0.000000 0.000000 0.000000
v -0.000000 3.255118 0.000000
v -0.000000 3.255118 0.916438
v 0.000000 1.003549 1.294775
v 0.000000 1.003549 0.102859
v 0.000000 0.100000 0.102859
v 0.000000 0.100000 1.000000
v -0.000000 3.255118 0.000000
v 0.350705 3.255118 0.846678
v 0.495489 1.003549 1.196216
v 0.039362 1.003549 0.095029
v 0.039362 0.100000 0.095029
v 0.382684 0.100000 0.923879
v 0.382684 0.000000 0.923879
v 0.382684 0.000000 0.923879
v 0.000000 0.000000 0.000000
v -0.000000 3.255118 0.000000
v 0.350705 3.255118 0.846678
v 0.495489 1.003549 1.196216
v 0.039362 1.003549 0.095029
v 0.039362 0.100000 0.095029
v 0.382684 0.100000 0.923879
v -0.000000 3.255118 0.000000
v 0.648019 3.255118 0.648019
v 0.915545 1.003549 0.915544
v 0.072732 1.003549 0.072732
v 0.072732 0.100000 0.072732
v 0.707107 0.100000 0.707107
v 0.707107 0.000000 0.707107
v 0.707107 0.000000 0.707107
v 0.000000 0.000000 0.000000
v -0.000000 3.255118 0.000000
v 0.648019 3.255118 0.648019
v 0.915545 1.003549 0.915544
v 0.072732 1.003549 0.072732
v 0.072732 0.100000 0.072732
v 0.707107 0.100000 0.707107
v -0.000000 3.255118 0.000000
v 0.846678 3.255118 0.350706
v 1.196216 1.003549 0.495489
v 0.095029 1.003549 0.039362
v 0.095029 0.100000 0.039362
v 0.923880 0.100000 0.382683
v 0.923880 0.000000 0.382683
v 0.923880 0.000000 0.382683
v 0.000000 0.000000 0.000000
v -0.000000 3.255118 0.000000
v 0.846678 3.255118 0.350706
v 1.196216 1.003549 0.495489
v 0.095029 1.003549 0.039362
v 0.095029 0.100000 0.039362
v 0.923880 0.100000 0.382683
vn 0.0000 1.0000 0.0000
vn 0.6883 0.7254 0.0000
vn 0.6359 0.7254 -0.2634
vn 0.4867 0.7254 -0.4867
vn 0.2634 0.7254 -0.6359
vn 0.0000 0.7254 -0.6883
vn -0.2634 0.7254 -0.6359
vn -0.4867 0.7254 -0.4867
vn -0.6359 0.7254 -0.2634
vn -0.6883 0.7254 0.0000
vn -0.6359 0.7254 0.2634
vn -0.4867 0.7254 0.4867
vn -0.2634 0.7254 0.6359
vn 0.0000 0.7254 0.6883
vn 0.2634 0.7254 0.6359
vn 0.4867 0.7254 0.4867
vn 0.6359 0.7254 0.2634
vn 0.7980 -0.6026 0.0000
vn 0.7373 -0.6026 -0.3054
vn 0.5643 -0.6026 -0.5643
vn 0.3054 -0.6026 -0.7373
vn 0.0000 -0.6026 -0.7980
vn -0.3054 -0.6026 -0.7373
vn -0.5643 -0.6026 -0.5643
vn -0.7373 -0.6026 -0.3054
vn -0.7980 -0.6026 0.0000
vn -0.7373 -0.6026 0.3054
vn -0.5643 -0.6026 0.5643
vn -0.3054 -0.6026 0.7373
vn 0.0000 -0.6026 0.7980
vn 0.3054 -0.6026 0.7373
vn 0.5643 -0.6026 0.5643
vn 0.7373 -0.6026 0.3054
vn 0.6571 -0.7537 0.0000
vn 0.6071 -0.7537 -0.2515
vn 0.4646 -0.7537 -0.4646
vn 0.2515 -0.7537 -0.6071
vn 0.0000 -0.7537 -0.6571
vn -0.2515 -0.7537 -0.6071
vn -0.4646 -0.7537 -0.4646
vn -0.6071 -0.7537 -0.2515
vn -0.6571 -0.7537 0.0000
vn -0.6071 -0.7537 0.2515
vn -0.4646 -0.7537 0.4646
vn -0.2515 -0.7537 0.6071
vn 0.0000 -0.7537 0.6571
vn 0.2515 -0.7537 0.6071
vn 0.4646 -0.7537 0.4646
vn 0.6071 -0.7537 0.2515
vn 0.6571 0.7537 0.0000
vn 0.6071 0.7537 -0.2515
vn 0.4646 0.7537 -0.4646
vn 0.2515 0.7537 -0.6071
vn 0.0000 0.7537 -0.6571
vn -0.2515 0.7537 -0.6071
vn -0.4646 0.7537 -0.4646
vn -0.6071 0.7537 -0.2515
vn -0.6571 0.7537 0.0000
vn -0.6071 0.7537 0.2515
vn -0.4646 0.7537 0.4646
vn -0.2515 0.7537 0.6071
vn 0.0000 0.7537 0.6571
vn 0.2515 0.7537 0.6071
vn 0.4646 0.7537 0.4646
vn 0.6071 0.7537 0.2515
vn 0.7462 0.6657 0.0000
vn 0.6894 0.6657 -0.2855
vn 0.5276 0.6657 -0.5276
vn 0.2855 0.6657 -0.6894
vn 0.0000 0.6657 -0.7462
vn -0.2855 0.6657 -0.6894
vn -0.5276 0.6657 -0.5276
vn -0.6894 0.6657 -0.2855
vn -0.7462 0.6657 0.0000
vn -0.6894 0.6657 0.2855
vn -0.5276 0.6657 0.5276
vn -0.2855 0.6657 0.6894
vn 0.0000 0.6657 0.7462
vn 0.2855 0.6657 0.6894
vn 0.5276 0.6657 0.5276
vn 0.6894 0.6657 0.2855
vn 0.7002 0.0000 0.7139
vn 0.8233 0.0000 0.5676
vn 0.9146 0.0000 0.4042
vn 0.9701 0.0000 0.2426
vn 0.0000 0.0000 1.0000
vn -0.9701 0.0000 0.2426
vn -0.9146 0.0000 0.4042
vn -0.8233 0.0000 0.5676
vn -0.7002 0.0000 0.7139
vn -0.5502 0.0000 0.8350
vn -0.3789 0.0000 0.9254
vn -0.1932 0.0000 0.9811
vn 0.1932 0.0000 0.9811
vn 0.3789 0.0000 0.9254
vn 0.5502 0.0000 0.8350
vn 0.0000 -0.6585 0.7526
vn 0.0000 -1.0000 0.0000
usemtl None
s 1
f 1//1 2//2 17//3 16//1
f 16//1 17//3 32//4 31//1
f 31//1 32//4 47//5 46//1
f 46//1 47//5 62//6 61//1
f 61//1 62//6 77//7 76//1
f 76//1 77//7 92//8 91//1
f 91//1 92//8 107//9 106//1
f 106//1 107//9 122//10 121//1
f 121//1 122//10 137//11 136//1
f 136//1 137//11 152//12 151//1
f 151//1 152//12 167//13 166//1
f 166//1 167//13 182//14 181//1
f 181//1 182//14 197//15 196//1
f 196//1 197//15 212//16 211//1
f 211//1 212//16 227//17 226//1
f 226//1 227//17 2//2 1//1
f 2//2 3//18 18//19 17//3
f 17//3 18//19 33//20 32//4
f 32//4 33//20 48//21 47//5
f 47//5 48//21 63//22 62//6
f 62//6 63//22 78//23 77//7
f 77//7 78//23 93//24 92//8
f 92//8 93//24 108//25 107//9
f 107//9 108//25 123//26 122//10
f 122//10 123//26 138//27 137//11
f 137//11 138//27 153//28 152//12
f 152//12 153//28 168//29 167//13
f 167//13 168//29 183//30 182//14
f 182//14 183//30 198//31 197//15
f 197//15 198//31 213//32 212//16
f 212//16 213//32 228//33 227//17
f 227//17 228//33 3//18 2//2
f 3//18 4//34 19//35 18//19
f 18//19 19//35 34//36 33//20
f 33//20 34//36 49//37 48//21
f 48//21 49//37 64//38 63//22
f 63//22 64//38 79//39 78//23
f 78//23 79//39 94//40 93//24
f 93//24 94//40 109//41 108//25
f 108//25 109//41 124//42 123//26
f 123//26 124//42 139//43 138//27
f 138//27 139//43 154//44 153//28
f 153//28 154//44 169//45 168//29
f 168//29 169//45 184//46 183//30
f 183//30 184//46 199//47 198//31
f 198//31 199//47 214//48 213//32
f 213//32 214//48 229//49 228//33
f 228//33 229//49 4//34 3//18
f 4//34 5//50 20//51 19//35
f 19//35 20//51 35//52 34//36
f 34//36 35//52 50//53 49//37
f 49//37 50//53 65//54 64//38
f 64//38 65//54 80//55 79//39
f 79//39 80//55 95//56 94//40
f 94//40 95//56 110//57 109//41
f 109//41 110//57 125//58 124//42
f 124//42 125//58 140//59 139//43
f 139//43 140//59 155//60 154//44
f 154//44 155//60 170//61 169//45
f 169//45 170//61 185//62 184//46
f 184//46 185//62 200//63 199//47
f 199//47 200//63 215//64 214//48
f 214//48 215//64 230//65 229//49
f 229//49 230//65 5//50 4//34
f 5//50 6//66 21//67 20//51
f 20//51 21//67 36//68 35//52
f 35//52 36//68 51//69 50//53
f 50//53 51//69 66//70 65//54
f 65//54 66//70 81//71 80//55
f 80//55 81//71 96//72 95//56
f 95//56 96//72 111//73 110//57
f 110//57 111//73 126//74 125//58
f 125//58 126//74 141//75 140//59
f 140//59 141//75 156//76 155//60
f 155//60 156//76 171//77 170//61
f 170//61 171//77 186//78 185//62
f 185//62 186//78 201//79 200//63
f 200//63 201//79 216//80 215//64
f 215//64 216//80 231//81 230//65
f 230//65 231//81 6//66 5//50
f 6//66 7//82 22//83 21//67
f 21//67 22//83 37//84 36//68
f 36//68 37//84 52//85 51//69
f 51//69 52//85 67//86 66//70
f 66//70 67//86 82//87 81//71
f 81//71 82//87 97//88 96//72
f 96//72 97//88 112//89 111//73
f 111//73 112//89 127//90 126//74
f 126//74 127//90 142//91 141//75
f 141//75 142//91 157//92 156//76
f 156//76 157//92 172//93 171//77
f 171//77 172//93 187//86 186//78
f 186//78 187//86 202//94 201//79
f 201//79 202//94 217//95 216//80
f 216//80 217//95 232//96 231//81
f 231//81 232//96 7//82 6//66
f 7//82 8//97 23//97 22//83
f 22//83 23//97 38//97 37//84
f 37//84 38//97 53//97 52//85
f 52//85 53//97 68//97 67//86
f 67//86 68//97 83//97 82//87
f 82//87 83//97 98//97 97//88
f 97//88 98//97 113//97 112//89
f 112//89 113//97 128//97 127//90
f 127//90 128//97 143//97 142//91
f 142//91 143//97 158//97 157//92
f 157//92 158//97 173//97 172//93
f 172//93 173//97 188//97 187//86
f 187//86 188//97 203//97 202//94
f 202//94 203//97 218//97 217//95
f 217//95 218//97 233//97 232//96
f 232//96 233//97 8//97 7//82
f 8//97 9//98 24//98 23//97
f 23//97 24//98 39//98 38//97
f 38//97 39//98 54//98 53//97
f 53//97 54//98 69//98 68//97
f 68//97 69//98 84//98 83//97
f 83//97 84//98 99//98 98//97
f 98//97 99//98 114//98 113//97
f 113//97 114//98 129//98 128//97
f 128//97 129//98 144//98 143//97
f 143//97 144//98 159//98 158//97
f 158//97 159//98 174//98 173//97
f 173//97 174//98 189//98 188//97
f 188//97 189//98 204//98 203//97
f 203//97 204//98 219//98 218//97
f 218//97 219//98 234//98 233//97
f 233//97 234//98 9//98 8//97
f 10//1 11//2 26//3 25//1
f 25//1 26//3 41//4 40//1
f 40//1 41//4 56//5 55//1
f 55//1 56//5 71//6 70//1
f 70//1 71//6 86//7 85//1
f 85//1 86//7 101//8 100//1
f 100//1 101//8 116//9 115//1
f 115//1 116//9 131//10 130//1
f 130//1 131//10 146//11 145//1
f 145//1 146//11 161//12 160//1
f 160//1 161//12 176//13 175//1
f 175//1 176//13 191//14 190//1
f 190//1 191//14 206//15 205//1
f 205//1 206//15 221//16 220//1
f 220//1 221//16 236//17 235//1
f 235//1 236//17 11//2 10//1
f 11//2 12//18 27//19 26//3
f 26//3 27//19 42//20 41//4
f 41//4 42//20 57//21 56//5
f 56//5 57//21 72//22 71//6
f 71//6 72//22 87//23 86//7
f 86//7 87//23 102//24 101//8
f 101//8 102//24 117//25 116//9
f 116//9 117//25 132//26 131//10
f 131//10 132//26 147//27 146//11
f 146//11 147//27 162//28 161//12
f 161//12 162//28 177//29 176//13
f 176//13 177//29 192//30 191//14
f 191//14 192//30 207//31 206//15
f 206//15 207//31 222//32 221//16
f 221//16 222//32 237//33 236//17
f 236//17 237//33 12//18 11//2
f 12//18 13//34 28//35 27//19
f 27//19 28//35 43//36 42//20
f 42//20 43//36 58//37 57//21
f 57//21 58//37 73//38 72//22
f 72//22 73//38 88//39 87//23
f 87//23 88//39 103//40 102//24
f 102//24 103//40 118//41 117//25
f 117//25 118//41 133//42 132//26
f 132//26 133//42 148//43 147//27
f 147//27 148//43 163//44 162//28
f 162//28 163//44 178//45 177//29
f 177//29 178//45 193//46 192//30
f 192//30 193//46 208//47 207//31
f 207//31 208//47 223//48 222//32
f 222//32 223//48 238//49 237//33
f 237//33 238//49 13//34 12//18
f 13//34 14//50 29//51 28//35
f 28//35 29//51 44//52 43//36
f 43//36 44//52 59//53 58//37
f 58//37 59//53 74//54 73//38
f 73//38 74//54 89//55 88//39
f 88//39 89//55 104//56 103//40
f 103//40 104//56 119//57 118//41
f 118//41 119//57 134//58 133//42
f 133//42 134//58 149//59 148//43
f 148//43 149//59 164//60 163//44
f 163//44 164//60 179//61 178//45
f 178//45 179//61 194//62 193//46
f 193//46 194//62 209//63 208//47
f 208//47 209//63 224//64 223//48
f 223//48 224//64 239//65 238//49
f 238//49 239//65 14//50 13//34
f 14//50 15//1 30//1 29//51
f 29//51 30//1 45//1 44//52
f 44//52 45//1 60//1 59//53
f 59//53 60//1 75//1 74//54
f 74//54 75//1 90//1 89//55
f 89//55 90//1 105//1 104//56
f 104//56 105//1 120//1 119//57
f 119//57 120//1 135//1 134//58
f 134//58 135//1 150//1 149//59
f 149//59 150//1 165//1 164//60
f 164//60 165//1 180//1 179//61
f 179//61 180//1 195//1 194//62
f 194//62 195//1 210//1 209//63
f 209//63 210//1 225//1 224//64
f 224//64 225//1 240//1 239//65
f 239//65 240//1 15//1 14//50
